<svg width="45" height="45" viewBox="0 0 45 45" fill="none" xmlns="http://www.w3.org/2000/svg">
<g clip-path="url(#clip0)">
<path d="M22.118 44.236C34.314 44.236 44.236 34.314 44.236 22.118C44.236 9.922 34.314 0 22.118 0C9.92196 0 -3.8147e-05 9.922 -3.8147e-05 22.118C-3.8147e-05 34.314 9.92196 44.236 22.118 44.236ZM22.118 1.5C33.486 1.5 42.736 10.749 42.736 22.118C42.736 33.486 33.486 42.736 22.118 42.736C10.748 42.736 1.49996 33.486 1.49996 22.118C1.49996 10.749 10.748 1.5 22.118 1.5Z" fill="#FF9A11"/>
<path d="M24.895 29.884C25.087 29.884 25.279 29.811 25.425 29.664C25.718 29.372 25.718 28.896 25.425 28.603L18.629 21.799L25.425 14.996C25.717 14.703 25.717 14.227 25.425 13.935C25.132 13.642 24.657 13.642 24.364 13.935L17.039 21.268C16.746 21.561 16.746 22.036 17.039 22.329L24.364 29.662C24.511 29.811 24.703 29.884 24.895 29.884Z" fill="#FF9A11"/>
</g>
<defs>
<clipPath id="clip0">
<rect width="44.236" height="44.236" fill="white" transform="matrix(-1 0 0 1 44.236 0)"/>
</clipPath>
</defs>
</svg>
