<svg width="40" height="34" viewBox="0 0 40 34" fill="none" xmlns="http://www.w3.org/2000/svg">
<path d="M39.8166 7.49395L33.1361 1.84879C33.0185 1.74957 32.8593 1.69385 32.6932 1.69385H7.30687C6.96093 1.69385 6.68054 1.93072 6.68054 2.2231V33.2716C6.68054 33.564 6.96085 33.8009 7.30687 33.8009H39.3737C39.7196 33.8009 40 33.564 40 33.2716V7.86826C40 7.72791 39.9341 7.5933 39.8166 7.49395Z" fill="#F2F2F2"/>
<path d="M39.9986 7.84503C39.9916 7.71325 39.9273 7.58802 39.8165 7.49434L33.1359 1.84898C33.0184 1.74969 32.8592 1.69397 32.6931 1.69397H32.6653V7.31582C32.6653 7.60809 32.9457 7.84509 33.2916 7.84509H39.9986V7.84503Z" fill="#E5E5E5"/>
<path d="M7.30687 1.69373C6.96093 1.69373 6.68054 1.93059 6.68054 2.22298V33.2715C6.68054 33.5638 6.96085 33.8008 7.30687 33.8008H36.6731L10.6362 1.69373H7.30687Z" fill="#E5E5E5"/>
<path d="M16.7432 0H1.87891C0.84289 0 0 0.712258 0 1.58771V18.6645C0 19.5399 0.84289 20.2522 1.87891 20.2522H16.7432C17.7792 20.2522 18.6221 19.5399 18.6221 18.6645V1.58771C18.6221 0.712258 17.7792 0 16.7432 0Z" fill="#666666"/>
<path d="M28.0167 16.3711C22.8826 16.3711 18.7056 19.9007 18.7056 24.2391C18.7056 28.5776 22.8826 32.1072 28.0167 32.1072C33.1509 32.1072 37.3278 28.5776 37.3278 24.2391C37.3278 19.9007 33.1508 16.3711 28.0167 16.3711Z" fill="#F7D04A"/>
<path d="M29.8538 30.5547C24.7197 30.5547 20.5427 27.0252 20.5427 22.6868C20.5427 20.9126 21.2416 19.2739 22.4184 17.9563C20.1649 19.3936 18.7055 21.6751 18.7055 24.2392C18.7055 28.5776 22.8825 32.1072 28.0166 32.1072C31.0511 32.1072 33.751 30.874 35.4519 28.9697C33.8928 29.9642 31.9535 30.5547 29.8538 30.5547Z" fill="#F3B41B"/>
<path d="M29.4465 23.7805L28.4759 23.7563V20.8167H30.6889C31.0349 20.8167 31.3152 20.5799 31.3152 20.2875C31.3152 19.9952 31.0349 19.7582 30.6889 19.7582H28.4759V19.1584C28.4759 18.8661 28.1956 18.6292 27.8496 18.6292C27.5037 18.6292 27.2233 18.866 27.2233 19.1584V19.7582H26.597C25.5609 19.7582 24.718 20.4705 24.718 21.3459V23.1806C24.718 24.0531 25.5555 24.7637 26.5868 24.7683L27.2233 24.7841V27.6614H25.3444C24.9984 27.6614 24.718 27.8983 24.718 28.1907C24.718 28.4831 24.9984 28.7199 25.3444 28.7199H27.2233V29.3197C27.2233 29.6121 27.5036 29.849 27.8496 29.849C28.1956 29.849 28.4759 29.6121 28.4759 29.3197V28.7199H29.4363C30.4723 28.7199 31.3152 28.0077 31.3152 27.1322V25.3681C31.3152 24.4956 30.4778 23.7852 29.4465 23.7805ZM26.6156 23.7101C26.6095 23.71 26.6033 23.7099 26.5971 23.7099C26.2517 23.7099 25.9708 23.4725 25.9708 23.1807V21.346C25.9708 21.0541 26.2517 20.8167 26.5971 20.8167H27.2234V23.7252L26.6156 23.7101ZM30.0627 27.1324C30.0627 27.4242 29.7817 27.6616 29.4363 27.6616H28.476V24.8154L29.4179 24.8388C29.424 24.8389 29.4302 24.839 29.4363 24.839C29.7817 24.839 30.0627 25.0764 30.0627 25.3683V27.1324Z" fill="#EB6836"/>
<path d="M15.9917 1.69373H2.63048C2.28454 1.69373 2.00415 1.93058 2.00415 2.22296V5.04547C2.00415 5.33778 2.28446 5.57471 2.63048 5.57471H15.9917C16.3376 5.57471 16.618 5.33785 16.618 5.04547V2.22296C16.618 1.93065 16.3377 1.69373 15.9917 1.69373Z" fill="#F2F2F2"/>
<path d="M2.63048 1.69373C2.28454 1.69373 2.00415 1.93058 2.00415 2.22296V5.04547C2.00415 5.33778 2.28446 5.57471 2.63048 5.57471H5.34446L9.93735 1.69379H2.63048V1.69373Z" fill="#62C9CC"/>
<path d="M15.9917 1.69373H13.6534L9.06055 5.57471H15.9917C16.3376 5.57471 16.618 5.33784 16.618 5.04546V2.22297C16.618 1.93065 16.3377 1.69373 15.9917 1.69373Z" fill="#62C9CC"/>
<path d="M5.30275 6.20996H2.63048C2.28454 6.20996 2.00415 6.44689 2.00415 6.73936V8.99807C2.00415 9.29047 2.28446 9.52747 2.63048 9.52747H5.30275C5.64869 9.52747 5.92908 9.29053 5.92908 8.99807V6.73936C5.929 6.44689 5.64869 6.20996 5.30275 6.20996Z" fill="#EF9D3C"/>
<path d="M10.6054 6.20996H7.93312C7.58718 6.20996 7.30679 6.44689 7.30679 6.73936V8.99807C7.30679 9.29047 7.58711 9.52747 7.93312 9.52747H10.6054C10.9513 9.52747 11.2317 9.29053 11.2317 8.99807V6.73936C11.2317 6.44689 10.9514 6.20996 10.6054 6.20996Z" fill="#EF9D3C"/>
<path d="M5.30275 10.726H2.63048C2.28454 10.726 2.00415 10.9629 2.00415 11.2554V13.5141C2.00415 13.8065 2.28446 14.0435 2.63048 14.0435H5.30275C5.64869 14.0435 5.92908 13.8065 5.92908 13.5141V11.2554C5.929 10.9629 5.64869 10.726 5.30275 10.726Z" fill="#EF9D3C"/>
<path d="M10.6054 10.726H7.93312C7.58718 10.726 7.30679 10.9629 7.30679 11.2554V13.5141C7.30679 13.8065 7.58711 14.0435 7.93312 14.0435H10.6054C10.9513 14.0435 11.2317 13.8065 11.2317 13.5141V11.2554C11.2317 10.9629 10.9514 10.726 10.6054 10.726Z" fill="#EF9D3C"/>
<path d="M5.30275 15.2422H2.63048C2.28454 15.2422 2.00415 15.4791 2.00415 15.7716V18.0304C2.00415 18.3228 2.28446 18.5598 2.63048 18.5598H5.30275C5.64869 18.5598 5.92908 18.3229 5.92908 18.0304V15.7716C5.929 15.4791 5.64869 15.2422 5.30275 15.2422Z" fill="#EF9D3C"/>
<path d="M10.6054 15.2422H7.93312C7.58718 15.2422 7.30679 15.4791 7.30679 15.7716V18.0304C7.30679 18.3228 7.58711 18.5598 7.93312 18.5598H10.6054C10.9513 18.5598 11.2317 18.3229 11.2317 18.0304V15.7716C11.2317 15.4791 10.9514 15.2422 10.6054 15.2422Z" fill="#EF9D3C"/>
<path d="M15.9499 6.20996H13.2777C12.9317 6.20996 12.6513 6.44689 12.6513 6.73936V8.99807C12.6513 9.29047 12.9316 9.52747 13.2777 9.52747H15.9499C16.2959 9.52747 16.5763 9.29053 16.5763 8.99807V6.73936C16.5762 6.44689 16.2959 6.20996 15.9499 6.20996Z" fill="#EF9D3C"/>
<path d="M15.9916 10.726H13.3194C12.9734 10.726 12.693 10.9628 12.693 11.2552V18.0296C12.693 18.3219 12.9733 18.5588 13.3194 18.5588H15.9916C16.3376 18.5588 16.618 18.322 16.618 18.0296V11.2552C16.618 10.9628 16.3376 10.726 15.9916 10.726Z" fill="#F7D04A"/>
<path d="M23.2692 6.13977C23.0987 6.13977 22.9288 6.08127 22.8051 5.96598L21.5934 4.83672C21.361 4.6202 21.3803 4.28536 21.6366 4.08899C21.8926 3.89248 22.2889 3.90879 22.5213 4.12557L23.7331 5.25483C23.9654 5.47134 23.9461 5.80618 23.6898 6.00256C23.5699 6.09447 23.4193 6.13977 23.2692 6.13977Z" fill="#666666"/>
<path d="M36.2586 14.1361L26.2795 5.70345C26.192 5.62958 26.0806 5.57921 25.9594 5.55874L23.5974 5.15961C23.3922 5.12515 23.1799 5.17921 23.0317 5.30432C22.8838 5.42942 22.8195 5.60879 22.8605 5.78234L23.3328 7.77823C23.357 7.88068 23.4166 7.97476 23.5041 8.0487L33.4834 16.4813C33.8831 16.8191 34.4534 16.9877 35.0152 16.9362C35.5174 16.8902 35.9096 16.6766 36.2587 16.3815C36.9913 15.7624 36.9913 14.7553 36.2586 14.1361Z" fill="#62C9CC"/>
<path d="M23.504 8.04937L30.3505 13.8348L33.1258 11.4897L26.2792 5.70422L23.504 8.04937Z" fill="#62C9CC"/>
<path d="M23.5974 5.15956C23.1667 5.08718 22.7744 5.41816 22.8605 5.78249L23.3328 7.779C23.357 7.88149 23.4166 7.9756 23.5041 8.04956L26.2794 5.70358C26.1919 5.62968 26.0806 5.5793 25.9594 5.55882L23.5974 5.15956Z" fill="#F7D04A"/>
<path d="M36.2586 14.136L33.1262 11.489L30.3508 13.8343L33.4832 16.4813C33.8755 16.8128 34.4363 16.9751 34.9869 16.9329C35.4996 16.8936 35.9025 16.6823 36.2585 16.3816C36.9913 15.7624 36.9912 14.7552 36.2586 14.136Z" fill="#50A9A9"/>
<path d="M35.2843 14.5905C35.1241 14.5905 34.9637 14.5388 34.8414 14.4355C34.5968 14.2287 34.5968 13.8937 34.8414 13.687L35.8041 12.8735L32.8587 10.5099C32.6079 10.3086 32.5977 9.9736 32.8359 9.76175C33.0742 9.54977 33.4706 9.54112 33.7212 9.74241L37.1328 12.48C37.2553 12.5783 37.3257 12.7142 37.3278 12.8569C37.33 12.9996 37.2638 13.1371 37.1445 13.238L35.7273 14.4356C35.6048 14.5387 35.4445 14.5905 35.2843 14.5905Z" fill="#666666"/>
<path d="M15.4906 25.3329H11.3152C10.9693 25.3329 10.6889 25.096 10.6889 24.8036C10.6889 24.5113 10.9692 24.2744 11.3152 24.2744H15.4906C15.8366 24.2744 16.1169 24.5113 16.1169 24.8036C16.1169 25.096 15.8366 25.3329 15.4906 25.3329Z" fill="#808080"/>
<path d="M15.4906 28.1565H11.3152C10.9693 28.1565 10.6889 27.9196 10.6889 27.6272C10.6889 27.3348 10.9692 27.0979 11.3152 27.0979H15.4906C15.8366 27.0979 16.1169 27.3348 16.1169 27.6272C16.1169 27.9196 15.8366 28.1565 15.4906 28.1565Z" fill="#808080"/>
</svg>
