<svg width="40" height="40" viewBox="0 0 40 40" fill="none" xmlns="http://www.w3.org/2000/svg">
<path d="M36 10V32.6667C36 34.1393 34.806 35.3333 33.3333 35.3333H6.66667C5.19401 35.3333 4 34.1393 4 32.6667V10H36Z" fill="#5AAAE7"/>
<path d="M40 14V24C39.9977 24.7353 39.402 25.331 38.6667 25.3333H28L24.6667 28.6666V25.3333H22.6667C21.9313 25.331 21.3356 24.7353 21.3333 24V14C21.3356 13.2646 21.9313 12.6689 22.6667 12.6666H38.6667C39.402 12.6689 39.9977 13.2646 40 14Z" fill="#FFD422"/>
<path d="M34.0134 16.1468C34.7933 16.9274 34.7933 18.1924 34.0134 18.9733L30.6667 22.32L27.32 18.9733C26.7848 18.4746 26.5648 17.7239 26.7458 17.0153C26.9268 16.3066 27.4798 15.7532 28.1885 15.5723C28.8971 15.3913 29.6481 15.6116 30.1468 16.1468L30.6667 16.6667L31.1865 16.1468C31.5612 15.7711 32.0697 15.5602 32.5999 15.5602C33.1302 15.5602 33.639 15.7711 34.0134 16.1468Z" fill="#FF5023"/>
<path d="M17.3333 16H1.33333C0.597982 16.0023 0.00227865 16.598 0 17.3333V28C0.00227865 28.7354 0.597982 29.3311 1.33333 29.3333H12L15.3333 32.6667V29.3333H17.3333C18.0687 29.3311 18.6644 28.7354 18.6667 28V17.3333C18.6644 16.598 18.0687 16.0023 17.3333 16Z" fill="#00CCB3"/>
<path d="M36 7.33329V9.99996H4V7.33329C4 5.86064 5.19401 4.66663 6.66667 4.66663H33.3333C34.806 4.66663 36 5.86064 36 7.33329Z" fill="#FF6243"/>
<path d="M7.33333 6.66663H8.66666V7.99996H7.33333V6.66663Z" fill="#FFD422"/>
<path d="M10 6.66663H11.3333V7.99996H10V6.66663Z" fill="#00B39D"/>
<path d="M12.6667 6.66663H14V7.99996H12.6667V6.66663Z" fill="#ED1C24"/>
<path d="M3.33333 19.3334H5.99999V20.6667H3.33333V19.3334Z" fill="#009986"/>
<path d="M7.33333 19.3334H15.3333V20.6667H7.33333V19.3334Z" fill="#009986"/>
<path d="M3.33333 22H15.3333V23.3333H3.33333V22Z" fill="#009986"/>
<path d="M3.33333 24.6667H15.3333V26.0001H3.33333V24.6667Z" fill="#009986"/>
</svg>
