<svg width="40" height="40" viewBox="0 0 40 40" fill="none" xmlns="http://www.w3.org/2000/svg">
<g clip-path="url(#clip0)">
<path d="M10.333 32.4693L39.9992 15.0992L31.1578 -0.00102602L1.49159 17.369L10.333 32.4693Z" fill="#31978C"/>
<path d="M28.8766 3.30066L5.4911 16.9935C5.99974 17.8622 5.68748 18.9906 4.7939 19.5138L10.08 28.5418C10.9737 28.0185 12.1105 28.2984 12.619 29.1671L36.0046 15.4742C35.496 14.6055 35.8081 13.4773 36.7019 12.954L31.4156 3.926C30.5219 4.44937 29.3852 4.16933 28.8766 3.30066Z" fill="#44C4A1"/>
<path d="M24.817 13.8503C23.1513 11.0056 19.9793 9.76622 17.7319 11.0821C15.4846 12.3979 15.013 15.7707 16.6787 18.6154C18.3443 21.4601 21.5164 22.6995 23.7637 21.3837C26.011 20.0678 26.4826 16.695 24.817 13.8503Z" fill="#31978C"/>
<path d="M32.2717 10.5525C32.8608 10.5525 33.3384 10.075 33.3384 9.48587C33.3384 8.89676 32.8608 8.41919 32.2717 8.41919C31.6826 8.41919 31.205 8.89676 31.205 9.48587C31.205 10.075 31.6826 10.5525 32.2717 10.5525Z" fill="#31978C"/>
<path d="M9.22224 24.0511C9.81135 24.0511 10.2889 23.5735 10.2889 22.9844C10.2889 22.3953 9.81135 21.9177 9.22224 21.9177C8.63313 21.9177 8.15556 22.3953 8.15556 22.9844C8.15556 23.5735 8.63313 24.0511 9.22224 24.0511Z" fill="#3EA69B"/>
<path d="M22.9566 20.5107L22.5289 19.7802C21.5597 20.2224 20.5258 20.3395 19.4284 20.1313L19.6492 18.8329C20.4946 18.9918 21.241 18.9441 21.8904 18.6897L20.7535 16.7481C19.894 17.0097 19.203 17.096 18.681 17.0075C18.1589 16.9189 17.7289 16.5862 17.3911 16.0092C17.0532 15.4322 16.978 14.8424 17.1669 14.2386C17.3561 13.6352 17.7643 13.1277 18.3922 12.7152L18.0992 12.2148L18.7393 11.84L19.0381 12.3502C19.8033 11.9743 20.6436 11.8181 21.5594 11.8823L21.4477 13.184C20.8235 13.1284 20.2338 13.2139 19.6768 13.4412L20.7783 15.3225L20.8084 15.3048C21.6812 15.036 22.3874 14.9495 22.9268 15.0454C23.4674 15.1411 23.9082 15.4812 24.2499 16.0648C24.5918 16.6487 24.6634 17.2454 24.4642 17.8542C24.2656 18.4637 23.8362 18.9836 23.1749 19.4157L23.5967 20.136L22.9566 20.5107ZM18.4683 14.4646C18.3859 14.7141 18.4106 14.9506 18.5415 15.1742C18.6723 15.3977 18.8427 15.5354 19.0522 15.587C19.2613 15.6396 19.5885 15.6159 20.0327 15.5171L19.0189 13.7857C18.7342 13.9885 18.5506 14.2147 18.4683 14.4646ZM23.1445 17.6191C23.2414 17.3568 23.2218 17.1085 23.085 16.8748C22.9483 16.6414 22.7666 16.4991 22.5399 16.4481C22.3123 16.3975 21.9636 16.4295 21.4934 16.5435L22.5479 18.3446C22.8487 18.1242 23.0471 17.8823 23.1445 17.6191Z" fill="#44C4A1"/>
<path d="M22.2866 25.4702L28.0472 22.0973L19.2058 6.99702L13.4451 10.37L22.2866 25.4702Z" fill="#F6C358"/>
<path d="M22.7137 25.2224L23.1542 24.9645L14.3127 9.86421L13.8722 10.1221L22.7137 25.2224Z" fill="white"/>
<path d="M27.1802 22.604L27.6207 22.3461L18.7793 7.2458L18.3388 7.50372L27.1802 22.604Z" fill="white"/>
<path d="M5.63913 34.036L39.396 27.5459L36.0925 10.3634L2.33562 16.8536L5.63913 34.036Z" fill="#3EA69B"/>
<path d="M6.39484 31.3443L4.03598 19.0718C4.71398 18.9415 5.15792 18.2863 5.02762 17.6083L33.8768 12.0634C34.0071 12.7413 34.6624 13.1853 35.3403 13.055L37.6992 25.3274C37.0212 25.4577 36.5772 26.1129 36.7075 26.7909L7.85834 32.3359C7.72805 31.6579 7.07284 31.2139 6.39484 31.3443Z" fill="#44C4A1"/>
<path d="M25.4961 21.3088C24.8738 18.0719 22.2963 15.8463 19.7391 16.338C17.1818 16.8296 15.6133 19.8523 16.2357 23.0893C16.858 26.3262 19.4355 28.5518 21.9928 28.0601C24.55 27.5685 26.1185 24.5458 25.4961 21.3088Z" fill="#3EA69B"/>
<path d="M33.9804 20.7457C34.5695 20.7457 35.0471 20.2681 35.0471 19.679C35.0471 19.0899 34.5695 18.6123 33.9804 18.6123C33.3913 18.6123 32.9137 19.0899 32.9137 19.679C32.9137 20.2681 33.3913 20.7457 33.9804 20.7457Z" fill="#3EA69B"/>
<path d="M7.75296 25.7872C8.34206 25.7872 8.81963 25.3096 8.81963 24.7205C8.81963 24.1314 8.34206 23.6538 7.75296 23.6538C7.16385 23.6538 6.68628 24.1314 6.68628 24.7205C6.68628 25.3096 7.16385 25.7872 7.75296 25.7872Z" fill="#3EA69B"/>
<path d="M21.5246 26.9679L21.3649 26.1366C20.3037 26.2305 19.2899 25.9963 18.3247 25.4341L18.9656 24.2836C19.7097 24.7153 20.4293 24.9191 21.1263 24.8956L20.7017 22.6862C19.8041 22.6463 19.1239 22.4974 18.6612 22.2399C18.1984 21.9824 17.904 21.5253 17.7778 20.8687C17.6516 20.2121 17.7773 19.631 18.1566 19.1246C18.536 18.6188 19.0901 18.2763 19.8196 18.0967L19.7101 17.5272L20.4386 17.3872L20.5501 17.9679C21.3969 17.8685 22.2413 18.0013 23.0833 18.367L22.5441 19.5571C21.9741 19.2967 21.3896 19.1808 20.7888 19.2093L21.2002 21.3501L21.2345 21.3435C22.1469 21.381 22.8415 21.5348 23.3183 21.805C23.796 22.0755 24.0983 22.5431 24.2259 23.2072C24.3535 23.8717 24.2222 24.4582 23.8316 24.9657C23.4411 25.4741 22.863 25.8212 22.0954 26.0081L22.253 26.8279L21.5246 26.9679ZM19.3083 19.7716C19.1474 19.9794 19.0919 20.2106 19.1407 20.465C19.1896 20.7194 19.3043 20.9059 19.4846 21.0245C19.6641 21.1437 19.9807 21.2304 20.4324 21.2854L20.0536 19.3151C19.7176 19.4113 19.4691 19.5634 19.3083 19.7716ZM22.6656 24.3043C22.8443 24.0893 22.9086 23.8486 22.8575 23.5827C22.8065 23.3171 22.6825 23.1224 22.4857 22.9987C22.2881 22.8752 21.9486 22.7891 21.4673 22.7399L21.8613 24.7895C22.2183 24.6819 22.4861 24.5199 22.6656 24.3043Z" fill="#44C4A1"/>
<path d="M13.9614 37.065C13.9614 38.6859 10.8361 40 6.98089 40C3.12565 40 0.000411987 38.6859 0.000411987 37.065V34.6642H13.9614V37.065Z" fill="#F6C358"/>
<path d="M6.98103 37.5957C10.8363 37.5957 13.9616 36.2824 13.9616 34.6623C13.9616 33.0422 10.8363 31.7289 6.98103 31.7289C3.12578 31.7289 0.000473022 33.0422 0.000473022 34.6623C0.000473022 36.2824 3.12578 37.5957 6.98103 37.5957Z" fill="#FCD462"/>
<path d="M6.98088 32.3025C3.61629 32.3025 0.888687 33.3598 0.888687 34.6641C0.888687 35.9684 3.61629 37.0257 6.98088 37.0257C10.3455 37.0257 13.0731 35.9684 13.0731 34.6641C13.0731 33.3598 10.3455 32.3025 6.98088 32.3025ZM6.98088 36.7633C3.99016 36.7633 1.56562 35.8234 1.56562 34.664C1.56562 33.5047 3.99016 32.5648 6.98088 32.5648C9.97159 32.5648 12.3961 33.5047 12.3961 34.664C12.3961 35.8235 9.97159 36.7633 6.98088 36.7633Z" fill="#DC8744"/>
<path d="M6.75778 36.2955V36.0082C5.82986 35.9715 4.99692 35.8285 4.25992 35.5793L5.00107 35.2369C5.56952 35.4285 6.15458 35.5425 6.75778 35.5793V34.8157C5.99263 34.7449 5.43239 34.6517 5.07708 34.5362C4.72176 34.4207 4.5441 34.2495 4.5441 34.0226C4.5441 33.7956 4.74821 33.6101 5.15805 33.4655C5.56789 33.3213 6.10087 33.2426 6.75778 33.2295V33.0326H7.40721V33.2333C8.1517 33.2544 8.85574 33.3528 9.51924 33.5286L8.85907 33.8908C8.41204 33.7675 7.92863 33.6914 7.40729 33.6624V34.4023H7.43789C8.21623 34.4733 8.78802 34.5691 9.15327 34.6896C9.51933 34.8104 9.70195 34.9856 9.70195 35.2151C9.70195 35.4448 9.49206 35.6319 9.07229 35.776C8.65252 35.9204 8.09807 35.9991 7.40729 36.0122V36.2955H6.75778ZM6.04138 33.755C5.86868 33.8139 5.78274 33.8875 5.78274 33.9754C5.78274 34.0633 5.85053 34.1329 5.98604 34.1839C6.12072 34.2352 6.37854 34.2843 6.75778 34.3315V33.6505C6.45284 33.6611 6.21407 33.6959 6.04138 33.755ZM8.17896 35.4808C8.36817 35.4206 8.46323 35.3445 8.46323 35.2526C8.46323 35.1608 8.38884 35.088 8.24016 35.0342C8.09058 34.9804 7.81298 34.9299 7.40729 34.8827V35.591C7.73193 35.5781 7.98893 35.5412 8.17896 35.4808Z" fill="#DC8744"/>
<path d="M13.9614 34.1493C13.9614 35.7702 10.8361 37.0842 6.98089 37.0842C3.12565 37.0842 0.000411987 35.7702 0.000411987 34.1493V31.7484H13.9614V34.1493Z" fill="#F6C358"/>
<path d="M6.98103 34.6831C10.8363 34.6831 13.9616 33.3698 13.9616 31.7497C13.9616 30.1296 10.8363 28.8163 6.98103 28.8163C3.12578 28.8163 0.000473022 30.1296 0.000473022 31.7497C0.000473022 33.3698 3.12578 34.6831 6.98103 34.6831Z" fill="#FCD462"/>
<path d="M6.98088 29.3867C3.61629 29.3867 0.888687 30.444 0.888687 31.7484C0.888687 33.0527 3.61629 34.11 6.98088 34.11C10.3455 34.11 13.0731 33.0527 13.0731 31.7484C13.0731 30.444 10.3455 29.3867 6.98088 29.3867ZM6.98088 33.8475C3.99016 33.8475 1.56562 32.9076 1.56562 31.7483C1.56562 30.5889 3.99016 29.649 6.98088 29.649C9.97159 29.649 12.3961 30.5889 12.3961 31.7483C12.3961 32.9077 9.97159 33.8475 6.98088 33.8475Z" fill="#DC8744"/>
<path d="M6.75778 33.3798V33.0924C5.82986 33.0557 4.99692 32.9127 4.25992 32.6635L5.00107 32.3211C5.56952 32.5127 6.15458 32.6267 6.75778 32.6635V31.8999C5.99263 31.8291 5.43239 31.7359 5.07708 31.6204C4.72176 31.505 4.5441 31.3337 4.5441 31.1068C4.5441 30.8799 4.74821 30.6943 5.15805 30.5498C5.56789 30.4055 6.10087 30.3269 6.75778 30.3137V30.1168H7.40721V30.3175C8.1517 30.3387 8.85574 30.437 9.51924 30.6128L8.85907 30.975C8.41204 30.8517 7.92863 30.7756 7.40729 30.7466V31.4866H7.43789C8.21623 31.5575 8.78802 31.6533 9.15327 31.7739C9.51933 31.8947 9.70195 32.0699 9.70195 32.2994C9.70195 32.5291 9.49206 32.7162 9.07229 32.8603C8.65252 33.0047 8.09807 33.0834 7.40729 33.0965V33.3798H6.75778V33.3798ZM6.04138 30.8392C5.86868 30.8982 5.78274 30.9717 5.78274 31.0596C5.78274 31.1475 5.85053 31.2171 5.98604 31.2681C6.12072 31.3194 6.37854 31.3686 6.75778 31.4158V30.7348C6.45284 30.7454 6.21407 30.7802 6.04138 30.8392ZM8.17896 32.565C8.36817 32.5048 8.46323 32.4287 8.46323 32.3368C8.46323 32.245 8.38884 32.1722 8.24016 32.1184C8.09058 32.0646 7.81298 32.0142 7.40729 31.9669V32.6752C7.73193 32.6623 7.98893 32.6254 8.17896 32.565Z" fill="#DC8744"/>
<path d="M13.9614 31.2334C13.9614 32.8543 10.8361 34.1683 6.98089 34.1683C3.12565 34.1683 0.000411987 32.8543 0.000411987 31.2334V28.8325H13.9614V31.2334Z" fill="#F6C358"/>
<path d="M6.98103 31.7665C10.8363 31.7665 13.9616 30.4532 13.9616 28.8331C13.9616 27.213 10.8363 25.8997 6.98103 25.8997C3.12578 25.8997 0.000473022 27.213 0.000473022 28.8331C0.000473022 30.4532 3.12578 31.7665 6.98103 31.7665Z" fill="#FCD462"/>
<path d="M6.98088 26.4708C3.61629 26.4708 0.888687 27.5281 0.888687 28.8325C0.888687 30.1368 3.61629 31.1941 6.98088 31.1941C10.3455 31.1941 13.0731 30.1368 13.0731 28.8325C13.0731 27.5281 10.3455 26.4708 6.98088 26.4708ZM6.98088 30.9317C3.99016 30.9317 1.56562 29.9918 1.56562 28.8325C1.56562 27.6731 3.99016 26.7332 6.98088 26.7332C9.97159 26.7332 12.3961 27.6731 12.3961 28.8325C12.3961 29.9918 9.97159 30.9317 6.98088 30.9317Z" fill="#DC8744"/>
<path d="M6.75778 30.464V30.1766C5.82986 30.1399 4.99692 29.9969 4.25992 29.7477L5.00107 29.4054C5.56952 29.5969 6.15458 29.711 6.75778 29.7477V28.9841C5.99263 28.9133 5.43239 28.8201 5.07708 28.7047C4.72176 28.5892 4.5441 28.418 4.5441 28.1911C4.5441 27.9642 4.74821 27.7785 5.15805 27.634C5.56789 27.4897 6.10087 27.4111 6.75778 27.3979V27.201H7.40721V27.4017C8.1517 27.4229 8.85574 27.5212 9.51924 27.6971L8.85907 28.0592C8.41204 27.9359 7.92863 27.8598 7.40729 27.8309V28.5708H7.43789C8.21623 28.6418 8.78802 28.7375 9.15327 28.8582C9.51933 28.9789 9.70195 29.1541 9.70195 29.3836C9.70195 29.6133 9.49206 29.8004 9.07229 29.9445C8.65252 30.089 8.09807 30.1676 7.40729 30.1808V30.4641H6.75778V30.464ZM6.04138 27.9234C5.86868 27.9823 5.78274 28.0559 5.78274 28.1438C5.78274 28.2317 5.85053 28.3012 5.98604 28.3523C6.12072 28.4036 6.37854 28.4527 6.75778 28.4999V27.8189C6.45284 27.8296 6.21407 27.8643 6.04138 27.9234ZM8.17896 29.6493C8.36817 29.589 8.46323 29.513 8.46323 29.4211C8.46323 29.3293 8.38884 29.2564 8.24016 29.2026C8.09058 29.1489 7.81298 29.0984 7.40729 29.0511V29.7595C7.73193 29.7464 7.98893 29.7096 8.17896 29.6493Z" fill="#DC8744"/>
<path d="M13.9614 28.3175C13.9614 29.9384 10.8361 31.2525 6.98089 31.2525C3.12565 31.2525 0.000411987 29.9385 0.000411987 28.3175V25.9166H13.9614V28.3175Z" fill="#F6C358"/>
<path d="M6.98103 28.8497C10.8363 28.8497 13.9616 27.5364 13.9616 25.9163C13.9616 24.2962 10.8363 22.9829 6.98103 22.9829C3.12578 22.9829 0.000473022 24.2962 0.000473022 25.9163C0.000473022 27.5364 3.12578 28.8497 6.98103 28.8497Z" fill="#FCD462"/>
<path d="M6.98088 23.5551C3.61629 23.5551 0.888687 24.6124 0.888687 25.9167C0.888687 27.221 3.61629 28.2783 6.98088 28.2783C10.3455 28.2783 13.0731 27.221 13.0731 25.9167C13.0731 24.6124 10.3455 23.5551 6.98088 23.5551ZM6.98088 28.0159C3.99016 28.0159 1.56562 27.0761 1.56562 25.9167C1.56562 24.7573 3.99016 23.8174 6.98088 23.8174C9.97159 23.8174 12.3961 24.7573 12.3961 25.9167C12.3961 27.0761 9.97159 28.0159 6.98088 28.0159Z" fill="#DC8744"/>
<path d="M6.75778 27.5481V27.2607C5.82986 27.224 4.99692 27.081 4.25992 26.8319L5.00107 26.4894C5.56952 26.681 6.15458 26.795 6.75778 26.8319V26.0682C5.99263 25.9974 5.43239 25.9043 5.07708 25.7888C4.72176 25.6733 4.5441 25.5021 4.5441 25.2752C4.5441 25.0483 4.74821 24.8626 5.15805 24.7181C5.56789 24.5738 6.10087 24.4952 6.75778 24.482V24.2852H7.40721V24.4858C8.1517 24.507 8.85574 24.6053 9.51924 24.7812L8.85907 25.1433C8.41204 25.02 7.92863 24.9439 7.40729 24.915V25.6549H7.43789C8.21623 25.7259 8.78802 25.8217 9.15327 25.9423C9.51933 26.063 9.70195 26.2383 9.70195 26.4678C9.70195 26.6974 9.49206 26.8845 9.07229 27.0286C8.65252 27.1731 8.09807 27.2517 7.40729 27.2649V27.5482H6.75778V27.5481ZM6.04138 25.0075C5.86868 25.0664 5.78274 25.14 5.78274 25.2279C5.78274 25.3158 5.85053 25.3853 5.98604 25.4364C6.12072 25.4877 6.37854 25.5368 6.75778 25.584V24.903C6.45284 24.9137 6.21407 24.9484 6.04138 25.0075ZM8.17896 26.7334C8.36817 26.6732 8.46323 26.5971 8.46323 26.5052C8.46323 26.4134 8.38884 26.3406 8.24016 26.2868C8.09058 26.233 7.81298 26.1825 7.40729 26.1352V26.8436C7.73193 26.8306 7.98893 26.7938 8.17896 26.7334Z" fill="#DC8744"/>
<path d="M28.682 37.065C28.682 38.6859 25.5568 40 21.7015 40C17.8463 40 14.7211 38.686 14.7211 37.065V34.6642H28.682V37.065Z" fill="#F6C358"/>
<path d="M21.701 37.5957C25.5562 37.5957 28.6815 36.2824 28.6815 34.6623C28.6815 33.0422 25.5562 31.7289 21.701 31.7289C17.8457 31.7289 14.7204 33.0422 14.7204 34.6623C14.7204 36.2824 17.8457 37.5957 21.701 37.5957Z" fill="#FCD462"/>
<path d="M21.7015 32.3025C18.3369 32.3025 15.6093 33.3598 15.6093 34.6641C15.6093 35.9684 18.3369 37.0257 21.7015 37.0257C25.0661 37.0257 27.7937 35.9684 27.7937 34.6641C27.7937 33.3598 25.0662 32.3025 21.7015 32.3025ZM21.7015 36.7633C18.7108 36.7633 16.2863 35.8234 16.2863 34.664C16.2863 33.5047 18.7108 32.5648 21.7015 32.5648C24.6922 32.5648 27.1168 33.5047 27.1168 34.664C27.1168 35.8235 24.6922 36.7633 21.7015 36.7633Z" fill="#DC8744"/>
<path d="M21.4785 36.2955V36.0082C20.5505 35.9715 19.7176 35.8285 18.9806 35.5793L19.7218 35.2369C20.2902 35.4285 20.8753 35.5425 21.4785 35.5793V34.8157C20.7133 34.7449 20.1531 34.6517 19.7978 34.5362C19.4424 34.4207 19.2648 34.2495 19.2648 34.0226C19.2648 33.7956 19.4689 33.6101 19.8787 33.4655C20.2886 33.3213 20.8216 33.2426 21.4785 33.2295V33.0326H22.1279V33.2333C22.8724 33.2544 23.5764 33.3528 24.2399 33.5286L23.5798 33.8908C23.1327 33.7675 22.6493 33.6914 22.128 33.6624V34.4023H22.1586C22.9369 34.4733 23.5087 34.5691 23.874 34.6896C24.24 34.8104 24.4226 34.9856 24.4226 35.2151C24.4226 35.4448 24.2127 35.6319 23.793 35.776C23.3732 35.9204 22.8188 35.9991 22.128 36.0122V36.2955H21.4785ZM20.7621 33.755C20.5894 33.8139 20.5034 33.8875 20.5034 33.9754C20.5034 34.0633 20.5712 34.1329 20.7067 34.1839C20.8414 34.2352 21.0992 34.2843 21.4785 34.3315V33.6505C21.1735 33.6611 20.9348 33.6959 20.7621 33.755ZM22.8997 35.4808C23.0889 35.4206 23.184 35.3445 23.184 35.2526C23.184 35.1608 23.1096 35.088 22.9609 35.0342C22.8113 34.9804 22.5338 34.9299 22.1281 34.8827V35.591C22.4527 35.5781 22.7096 35.5412 22.8997 35.4808Z" fill="#DC8744"/>
<path d="M28.682 34.1493C28.682 35.7702 25.5568 37.0842 21.7015 37.0842C17.8463 37.0842 14.7211 35.7702 14.7211 34.1493V31.7484H28.682V34.1493Z" fill="#F6C358"/>
<path d="M21.701 34.6831C25.5562 34.6831 28.6815 33.3698 28.6815 31.7497C28.6815 30.1296 25.5562 28.8163 21.701 28.8163C17.8457 28.8163 14.7204 30.1296 14.7204 31.7497C14.7204 33.3698 17.8457 34.6831 21.701 34.6831Z" fill="#FCD462"/>
<path d="M21.7015 29.3867C18.3369 29.3867 15.6093 30.444 15.6093 31.7484C15.6093 33.0527 18.3369 34.11 21.7015 34.11C25.0661 34.11 27.7937 33.0527 27.7937 31.7484C27.7937 30.444 25.0662 29.3867 21.7015 29.3867ZM21.7015 33.8475C18.7108 33.8475 16.2863 32.9076 16.2863 31.7483C16.2863 30.5889 18.7108 29.649 21.7015 29.649C24.6922 29.649 27.1168 30.5889 27.1168 31.7483C27.1168 32.9077 24.6922 33.8475 21.7015 33.8475Z" fill="#DC8744"/>
<path d="M21.4785 33.3798V33.0924C20.5505 33.0557 19.7176 32.9127 18.9806 32.6635L19.7218 32.3211C20.2902 32.5127 20.8753 32.6267 21.4785 32.6635V31.8999C20.7133 31.8291 20.1531 31.7359 19.7978 31.6204C19.4424 31.505 19.2648 31.3337 19.2648 31.1068C19.2648 30.8799 19.4689 30.6943 19.8787 30.5498C20.2886 30.4055 20.8216 30.3269 21.4785 30.3137V30.1168H22.1279V30.3175C22.8724 30.3387 23.5764 30.437 24.2399 30.6128L23.5798 30.975C23.1327 30.8517 22.6493 30.7756 22.128 30.7466V31.4866H22.1586C22.9369 31.5575 23.5087 31.6533 23.874 31.7739C24.24 31.8947 24.4226 32.0699 24.4226 32.2994C24.4226 32.5291 24.2127 32.7162 23.793 32.8603C23.3732 33.0047 22.8188 33.0834 22.128 33.0965V33.3798H21.4785V33.3798ZM20.7621 30.8392C20.5894 30.8982 20.5034 30.9717 20.5034 31.0596C20.5034 31.1475 20.5712 31.2171 20.7067 31.2681C20.8414 31.3194 21.0992 31.3686 21.4785 31.4158V30.7348C21.1735 30.7454 20.9348 30.7802 20.7621 30.8392ZM22.8997 32.565C23.0889 32.5048 23.184 32.4287 23.184 32.3368C23.184 32.245 23.1096 32.1722 22.9609 32.1184C22.8113 32.0646 22.5338 32.0142 22.1281 31.9669V32.6752C22.4527 32.6623 22.7096 32.6254 22.8997 32.565Z" fill="#DC8744"/>
</g>
<defs>
<clipPath id="clip0">
<rect width="40" height="40" fill="white"/>
</clipPath>
</defs>
</svg>
