<svg width="37" height="31" viewBox="0 0 37 31" fill="none" xmlns="http://www.w3.org/2000/svg">
<path d="M36.25 5.80945V18.4847C36.25 21.6931 30.6539 24.2942 23.75 24.2942C20.5055 24.2942 17.55 23.7198 15.3281 22.7844C12.8219 21.7294 11.25 20.2163 11.25 18.5507V5.80945H36.25Z" fill="#C7C7C5"/>
<path d="M36.25 5.80945V18.4847C36.25 21.6931 30.6539 24.2942 23.75 24.2942C20.5055 24.2942 17.55 23.7198 15.3281 22.7844C22.5664 19.7634 30.1375 14.597 34.2672 5.80945H36.25Z" fill="#BFBFBD"/>
<path d="M23.75 11.619C30.6536 11.619 36.25 9.01801 36.25 5.80951C36.25 2.60101 30.6536 0 23.75 0C16.8464 0 11.25 2.60101 11.25 5.80951C11.25 9.01801 16.8464 11.619 23.75 11.619Z" fill="#E0E0DE"/>
<path d="M29.5703 8.99182L29.1797 7.98868C31.7422 7.27569 33.125 6.17525 33.125 5.5022H34.375C34.375 6.80987 32.489 8.17974 29.5703 8.99182Z" fill="#C7C7C5"/>
<path d="M18.9191 2.8623L18.5809 1.84487C19.0002 1.74581 19.4373 1.65785 19.8798 1.58435L20.1202 2.62114C19.7109 2.68942 19.306 2.77045 18.9191 2.8623Z" fill="#EBEBE9"/>
<path d="M14.375 5.50317H13.125C13.125 4.30415 14.7155 3.04199 17.2754 2.20959L17.7246 3.19546C15.5255 3.91077 14.375 4.89775 14.375 5.50317Z" fill="#EBEBE9"/>
<path d="M23.125 13.2034H24.375V14.2595H23.125V13.2034Z" fill="#348FD9"/>
<path d="M25.625 13.2034H26.875V14.2595H25.625V13.2034Z" fill="#348FD9"/>
<path d="M20.625 13.2034H21.875V14.2595H20.625V13.2034Z" fill="#348FD9"/>
<path d="M23.125 17.4285H24.375V18.4846H23.125V17.4285Z" fill="#348FD9"/>
<path d="M25.625 17.4285H26.875V18.4846H25.625V17.4285Z" fill="#348FD9"/>
<path d="M20.625 17.4285H21.875V18.4846H20.625V17.4285Z" fill="#348FD9"/>
<path d="M23.125 21.6536H24.375V22.7098H23.125V21.6536Z" fill="#348FD9"/>
<path d="M25.625 21.6536H26.875V22.7098H25.625V21.6536Z" fill="#348FD9"/>
<path d="M20.625 21.6536H21.875V22.7098H20.625V21.6536Z" fill="#348FD9"/>
<path d="M23.75 16.3721C29.3763 16.3721 34.1004 14.8867 36.25 12.7044V10.0345C36.25 12.8972 30.5255 15.3158 23.75 15.3158C16.9745 15.3158 11.25 12.8972 11.25 10.0345V12.7044C13.3996 14.8867 18.1237 16.3721 23.75 16.3721Z" fill="#B0B0AE"/>
<path d="M23.75 20.5972C29.3763 20.5972 34.1004 19.1118 36.25 16.9295V14.2595C36.25 17.1222 30.5255 19.5409 23.75 19.5409C16.9745 19.5409 11.25 17.1222 11.25 14.2595V16.9295C13.3996 19.1118 18.1237 20.5972 23.75 20.5972Z" fill="#B0B0AE"/>
<path d="M20 13.7315V18.325C20 20.4748 19.353 22.5893 18.1197 24.4697C16.8864 26.35 15.1074 27.9344 12.95 29.0738L10 30.6318L7.05 29.0738C4.89207 27.9349 3.11265 26.3506 1.87929 24.4701C0.645935 22.5897 -0.000793196 20.4749 7.30087e-07 18.325V13.7315C1.78333 13.7316 3.54921 13.4348 5.19679 12.8581C6.84438 12.2815 8.34139 11.4362 9.60234 10.3706L10 10.0345L10.3977 10.3706C12.9446 12.5223 16.3985 13.7312 20 13.7315Z" fill="#348FD9"/>
<path d="M20 13.7315V18.3249C20 20.4748 19.353 22.5893 18.1197 24.4696C16.8864 26.35 15.1074 27.9344 12.95 29.0738L10 30.6318L7.05002 29.0738C5.82648 28.4277 4.71954 27.6359 3.76331 26.723C9.86251 23.4716 13.9078 20.1292 16.5906 13.3638C17.704 13.608 18.8497 13.7316 20 13.7315Z" fill="#3086CD"/>
<path d="M8.37497 27.2823C6.57245 26.3372 5.08624 25.0179 4.05786 23.45C3.02948 21.8821 2.49316 20.1179 2.49997 18.3254V15.6818C5.24441 15.3233 7.83005 14.3641 9.99997 12.8997C12.1698 14.3643 14.7555 15.3236 17.5 15.6822V18.3257C17.5068 20.1183 16.9705 21.8825 15.9421 23.4503C14.9137 25.0182 13.4275 26.3375 11.625 27.2826L9.99997 28.1409L8.37497 27.2823Z" fill="#2D7DBF"/>
<path d="M9.375 15.3159H10.625V16.3721H9.375V15.3159Z" fill="#62A9E6"/>
<path d="M9.375 24.8224H10.625V25.8785H9.375V24.8224Z" fill="#62A9E6"/>
<path d="M5.625 21.6536H6.875V22.7098H5.625V21.6536Z" fill="#62A9E6"/>
<path d="M4.375 17.4285H5.625V18.4846H4.375V17.4285Z" fill="#62A9E6"/>
<path d="M13.125 21.6536H14.375V22.7098H13.125V21.6536Z" fill="#62A9E6"/>
<path d="M14.375 17.4285H15.625V18.4846H14.375V17.4285Z" fill="#62A9E6"/>
</svg>
