<svg width="26" height="23" viewBox="0 0 26 23" fill="none" xmlns="http://www.w3.org/2000/svg">
<path d="M22.0156 10.8954C22.0156 10.8954 24.3713 10.7707 23.6034 14.0147L23.6023 14.013L22.8356 12.7171C22.8356 12.7171 20.4272 13.366 18.9965 13.366C17.5658 13.366 16.3092 12.7171 16.3092 12.7171L15.1585 14.0139L15.1574 14.0148C14.3896 8.82424 18.9443 9.113 22.0156 9.113C22.0156 10.4102 22.0156 10.8954 22.0156 10.8954Z" fill="#965353"/>
<path d="M22.0157 10.8954C22.0157 10.8954 22.0157 10.4102 22.0157 9.11296C21.5176 9.11296 20.9805 9.10548 20.4335 9.11488C20.4335 10.4106 20.4335 10.2493 20.4335 10.8954C20.4335 11.9649 22.0155 11.4747 22.0155 12.9184C22.4161 12.8242 22.8357 12.7171 22.8357 12.7171L23.6024 14.013L23.6035 14.0147C24.3713 10.7707 22.0157 10.8954 22.0157 10.8954Z" fill="#864B4C"/>
<path d="M22.8356 12.7171L23.6024 14.013L23.5976 14.0147V15.3525C23.5976 16.4786 22.9801 17.4821 22.0161 18.1349C21.2937 18.6242 20.3766 18.9165 19.3789 18.9165C18.3811 18.9165 17.4641 18.6242 16.7422 18.1349C15.7777 17.4825 15.1602 16.479 15.1602 15.3525V14.0147L15.1586 14.0138L16.3092 12.7171C16.3092 12.7171 17.5658 13.3659 18.9966 13.3659C20.4273 13.3659 22.8356 12.7171 22.8356 12.7171Z" fill="#FFDECF"/>
<path d="M22.8357 12.7171C22.8357 12.7171 22.5047 12.8063 22.0155 12.9185V15.3525C22.0155 16.4786 21.398 17.4821 20.434 18.1349C19.9074 18.4916 19.2771 18.7428 18.5879 18.8533C18.5882 18.8533 18.5884 18.8534 18.5886 18.8534C18.652 18.8635 18.7159 18.8725 18.7802 18.8803C18.7809 18.8804 18.7815 18.8805 18.7822 18.8806C18.8431 18.8879 18.9046 18.894 18.9664 18.8991C18.9714 18.8995 18.9764 18.9001 18.9816 18.9005C19.038 18.905 19.0949 18.9082 19.1521 18.9108C19.162 18.9113 19.1717 18.9121 19.1816 18.9125C19.247 18.9151 19.3128 18.9165 19.379 18.9165C20.3767 18.9165 21.2937 18.6242 22.0162 18.1349C22.9802 17.4821 23.5977 16.4785 23.5977 15.3524V14.0147L23.6024 14.0129L22.8357 12.7171Z" fill="#FFCDBE"/>
<path d="M19.3789 18.9167V19.8082L18.0611 20.2535L16.7422 19.3624V18.1349C17.4641 18.6243 18.3811 18.9167 19.3789 18.9167Z" fill="#E6E9ED"/>
<path d="M22.0162 18.1349L22.0156 19.3624L20.4341 20.2535L19.3789 19.8082V18.9167C20.3766 18.9167 21.2937 18.6243 22.0162 18.1349Z" fill="#E6E9ED"/>
<path d="M22.5435 22.4822H16.2148H15.8199H13.5781V20.6994C13.5781 19.9598 14.2858 19.3621 15.1602 19.3621H16.7422L18.0611 20.2531L19.3789 19.8078L20.4341 20.2531L22.0156 19.3621H23.5977C24.4719 19.3621 25.1797 19.9598 25.1797 20.6994V22.4822H22.6753H22.5435Z" fill="#5D9CEC"/>
<path d="M22.5435 22.4822H16.2148H15.8199H13.5781V20.6994C13.5781 19.9598 14.2858 19.3621 15.1602 19.3621H16.7422L18.0611 20.2531L19.3789 19.8078L20.4341 20.2531L22.0156 19.3621H23.5977C24.4719 19.3621 25.1797 19.9598 25.1797 20.6994V22.4822H22.6753H22.5435Z" fill="#5D9CEC"/>
<path d="M23.5977 19.3621H22.0157C22.8899 19.3621 23.5976 19.9599 23.5976 20.6994V22.4822H25.1797V20.6994C25.1797 19.9598 24.472 19.3621 23.5977 19.3621Z" fill="#4A89DC"/>
<path d="M11.4707 14.4602L10.416 14.1421L4.08787 12.2322L1.9785 13.1234C1.69742 10.2122 3.03319 9.55848 3.03319 9.55848L4.14061 10.0041C4.14061 10.0041 11.4707 6.43918 11.4707 14.4602Z" fill="#656D78"/>
<path d="M10.416 19.362C11.2903 19.362 11.998 19.9602 11.998 20.6993V22.4821H9.49416H9.36179H3.03314H2.63816H0.396423V20.6993C0.396423 19.9602 1.10407 19.362 1.97845 19.362H10.416Z" fill="#ED5565"/>
<path d="M6.65796 9.27064C8.25982 9.51876 9.74898 10.6593 9.87897 13.9801L10.416 14.1422L11.4707 14.4603C11.4707 9.59973 8.77914 8.99369 6.65796 9.27064Z" fill="#515760"/>
<path d="M8.30716 18.44L8.30663 19.3623C8.30663 20.347 7.36205 21.1453 6.1972 21.1453C5.03225 21.1453 4.08783 20.347 4.08783 19.3623V18.4396C4.70851 18.7432 5.42886 18.9165 6.1972 18.9165C6.96549 18.9165 7.68584 18.7432 8.30663 18.4396L8.30716 18.44Z" fill="#FFDECF"/>
<path d="M10.416 14.1421V15.3529C10.416 16.6727 9.56741 17.8242 8.30664 18.4396C7.6859 18.7432 6.9655 18.9164 6.19721 18.9164C5.42887 18.9164 4.70852 18.7431 4.08783 18.4396C2.8269 17.8242 1.97845 16.6728 1.97845 15.3529V13.1234L4.08783 12.2322L10.416 14.1421Z" fill="#FFDECF"/>
<path d="M8.83374 13.647V15.3528C8.83374 16.6727 7.98514 17.8242 6.72437 18.4396C6.32217 18.6363 5.87788 18.7779 5.40607 18.8535C5.66236 18.8945 5.92666 18.9164 6.19719 18.9164C6.96547 18.9164 7.68582 18.7431 8.30661 18.4396C9.56738 17.8242 10.416 16.6728 10.416 15.3528V14.1421L8.83374 13.647Z" fill="#FFCDBE"/>
<path d="M10.416 19.362H8.83374C9.70808 19.362 10.4158 19.9602 10.4158 20.6993V22.4821H11.998V20.6993C11.998 19.9602 11.2903 19.362 10.416 19.362Z" fill="#DA4453"/>
<path d="M18.8533 0.334229V7.46452H13.5804L10.9431 8.35526V7.46452H8.83374V0.334229H18.8533Z" fill="#A0D468"/>
<path d="M17.7988 21.1444H15.1622V22.4817H17.7988V21.1444Z" fill="#E6E9ED"/>
<path d="M8.83295 7.7987H10.5468V8.35527C10.5468 8.46623 10.6117 8.56961 10.7203 8.632C10.7862 8.66943 10.8627 8.68948 10.9423 8.68948C10.993 8.68948 11.0425 8.68142 11.0889 8.66542L13.655 7.7987H18.8525C18.9564 7.7987 19.0581 7.76305 19.132 7.70111C19.2059 7.63877 19.248 7.55276 19.248 7.46449V0.334211C19.248 0.245935 19.2059 0.159976 19.132 0.0980352C19.0582 0.0356492 18.9564 0 18.8525 0H8.83301C8.72859 0 8.62682 0.0356492 8.55352 0.0980352C8.47969 0.159976 8.4375 0.245935 8.4375 0.334211V1.84217C8.4375 2.02665 8.61469 2.17683 8.83301 2.17683C9.0508 2.17683 9.22852 2.02665 9.22852 1.84217V0.668422H18.457V7.13028H13.5791C13.529 7.13028 13.4784 7.13874 13.4325 7.15434L11.3379 7.86153V7.46449C11.3379 7.3767 11.2957 7.2907 11.2219 7.22831C11.1486 7.16593 11.0463 7.13028 10.9424 7.13028H9.22852V3.17901C9.22852 2.99498 9.0508 2.84525 8.83301 2.84525C8.61469 2.84525 8.4375 2.99498 8.4375 3.17901V7.46449C8.4375 7.55272 8.47969 7.63872 8.55352 7.70111C8.62676 7.76305 8.72859 7.7987 8.83295 7.7987Z" fill="black"/>
<path d="M25.5762 20.6989C25.5762 19.7775 24.689 19.0278 23.5986 19.0278H22.4123L22.4127 18.2879C23.3812 17.5728 23.9941 16.5222 23.9941 15.3528V14.0706C24.3031 12.757 24.1614 11.7829 23.5721 11.1756C23.2007 10.7927 22.7403 10.6468 22.4121 10.5922V9.113C22.4121 8.92838 22.235 8.77879 22.0165 8.77879C21.8665 8.77879 21.7127 8.77808 21.5562 8.77741C21.3925 8.77665 21.2259 8.77594 21.0573 8.77594C19.1492 8.77594 17.0071 8.87794 15.7346 10.0959C14.8193 10.9721 14.5024 12.2659 14.7655 14.0514V15.3529C14.7655 16.5226 15.3787 17.5735 16.3477 18.2885V19.0279H15.1611C14.0707 19.0279 13.1836 19.7775 13.1836 20.699V22.4812C13.1836 22.6659 13.3606 22.8155 13.5791 22.8155H15.1611H17.7979H25.1806C25.3991 22.8155 25.5761 22.6659 25.5761 22.4812V20.7006C25.5761 20.7 25.5762 20.6995 25.5762 20.6989ZM21.6211 19.1831L20.4066 19.8675L19.7753 19.601V19.2362C20.4407 19.1882 21.0661 19.0205 21.6214 18.7587L21.6211 19.1831ZM16.3277 10.5382C17.3823 9.5288 19.322 9.44427 21.0574 9.44427C21.2245 9.44427 21.3898 9.44503 21.5521 9.44574C21.5752 9.44583 21.5982 9.44592 21.6211 9.44605V10.8954C21.6211 10.9876 21.6643 11.0759 21.7439 11.1391C21.8235 11.2023 21.9286 11.235 22.0375 11.2291C22.0735 11.2273 22.5949 11.2226 22.9605 11.5993C23.2304 11.8776 23.3651 12.3046 23.3621 12.8582L23.1902 12.5677C23.1031 12.4204 22.902 12.3486 22.7164 12.3987C22.6929 12.4051 20.3495 13.0318 18.9977 13.0318C17.701 13.0318 16.5278 12.4377 16.5166 12.432C16.3427 12.342 16.1164 12.3788 15.994 12.5166L15.472 13.1047C15.4401 11.9747 15.7266 11.1136 16.3277 10.5382ZM15.5566 15.3528V14.1234L16.4225 13.1478C16.9102 13.3527 17.8993 13.7002 18.9977 13.7002C20.1691 13.7002 21.9131 13.2982 22.6321 13.119L23.2031 14.0842V15.3528C23.2031 17.1335 21.488 18.5822 19.3799 18.5822C17.2717 18.5822 15.5566 17.1335 15.5566 15.3528ZM18.9844 19.2362V19.5814L18.129 19.8705L17.1388 19.2014V18.7589C17.6939 19.0206 18.3192 19.1883 18.9844 19.2362ZM15.5567 22.147V21.4786H17.4023V22.147H15.5567ZM24.7851 22.147H18.1934V21.1444C18.1934 20.9598 18.0163 20.8102 17.7979 20.8102H15.1612C14.9428 20.8102 14.7657 20.9598 14.7657 21.1444V22.147H13.9747V20.6989C13.9747 20.1461 14.507 19.6963 15.1612 19.6963H16.6046L17.8149 20.5141C17.8184 20.5165 17.8224 20.518 17.8259 20.5203C17.8371 20.5273 17.8485 20.5338 17.8604 20.5398C17.8676 20.5434 17.8747 20.5469 17.882 20.5501C17.8933 20.5549 17.905 20.5591 17.9167 20.563C17.9245 20.5656 17.9323 20.5685 17.9402 20.5707C17.9533 20.5743 17.9666 20.5768 17.98 20.5792C17.9867 20.5804 17.9933 20.5821 18 20.583C18.0204 20.5858 18.0411 20.5874 18.062 20.5874C18.0758 20.5874 18.0896 20.5866 18.1035 20.5854C18.1059 20.5851 18.1084 20.5847 18.1108 20.5845C18.1217 20.5833 18.1325 20.5818 18.1434 20.5799C18.1478 20.5791 18.1522 20.5781 18.1566 20.5772C18.1651 20.5754 18.1736 20.5734 18.182 20.5711C18.1875 20.5697 18.193 20.5681 18.1985 20.5664C18.2018 20.5653 18.2054 20.5645 18.2088 20.5634L19.3618 20.1736L20.2584 20.5521C20.2644 20.5546 20.2707 20.5565 20.2768 20.5587C20.284 20.5614 20.291 20.5642 20.2983 20.5665C20.3082 20.5696 20.3181 20.5719 20.328 20.5743C20.3328 20.5754 20.3375 20.5769 20.3423 20.5779C20.3564 20.5807 20.3703 20.5828 20.3845 20.5844C20.3857 20.5845 20.3868 20.5847 20.388 20.5849C20.4036 20.5865 20.4192 20.5874 20.4348 20.5874C20.4534 20.5874 20.4718 20.5862 20.4901 20.584C20.4981 20.583 20.506 20.5812 20.5139 20.5798C20.524 20.578 20.5342 20.5766 20.544 20.5742C20.5521 20.5722 20.56 20.5694 20.5679 20.5671C20.5777 20.5641 20.5876 20.5612 20.5971 20.5577C20.6041 20.555 20.6108 20.5517 20.6177 20.5487C20.6279 20.5442 20.6382 20.5396 20.648 20.5343C20.6501 20.5331 20.6524 20.5324 20.6545 20.5312L22.1363 19.6963H23.5986C24.2524 19.6963 24.7844 20.1454 24.7852 20.6978C24.7852 20.6978 24.7851 20.6985 24.7851 20.6989V22.147Z" fill="black"/>
<path d="M10.415 19.0278H8.70133L8.70159 18.6245C9.9698 17.9291 10.8105 16.7223 10.8105 15.3527V14.6162L11.3366 14.775C11.3799 14.7881 11.4248 14.7945 11.4696 14.7945C11.5501 14.7945 11.6299 14.7737 11.6975 14.7335C11.8026 14.6709 11.8652 14.569 11.8652 14.4603C11.8652 12.4545 11.4082 10.9651 10.5068 10.0337C9.76641 9.2684 8.74858 8.8804 7.48158 8.8804C6.00476 8.8804 4.6208 9.41652 4.12905 9.62966L3.20219 9.25677C3.08449 9.2094 2.94674 9.21408 2.83405 9.26925C2.67543 9.34683 1.29479 10.1139 1.58198 13.1358V15.3527C1.58198 16.7225 2.42288 17.9294 3.69135 18.6248V19.0278H1.97754C0.887098 19.0278 0 19.7774 0 20.6989V22.4812C0 22.6659 0.177082 22.8155 0.395508 22.8155H11.997C12.2154 22.8155 12.3925 22.6659 12.3925 22.4812V20.7006C12.3925 20.7 12.3926 20.6995 12.3926 20.6989C12.3925 19.7774 11.5054 19.0278 10.415 19.0278ZM3.09662 9.9546L3.96963 10.3058C4.08676 10.353 4.22408 10.3484 4.33661 10.2939C4.35201 10.2864 5.89338 9.54882 7.48164 9.54882C9.74621 9.54882 10.9503 11.0403 11.0651 13.9833L4.21991 11.9174C4.17677 11.9044 4.13179 11.898 4.08691 11.898C4.02611 11.898 3.96552 11.9099 3.91004 11.9333L2.33861 12.5972C2.28097 10.9229 2.82899 10.2038 3.09662 9.9546ZM2.37305 15.3527V13.3299L4.11286 12.5949L10.0195 14.3775V15.3527C10.0195 17.1335 8.30445 18.5822 6.19629 18.5822C4.08813 18.5822 2.37305 17.1335 2.37305 15.3527ZM6.19624 19.2506C6.80168 19.2506 7.38012 19.1514 7.91037 18.9716L7.9101 19.3619V19.3619V19.362C7.9101 20.1606 7.14124 20.8102 6.19624 20.8102C5.25124 20.8102 4.48237 20.1606 4.48237 19.362V18.9717C5.01256 19.1514 5.59095 19.2506 6.19624 19.2506ZM11.6014 22.147H0.791016V20.6989C0.791016 20.146 1.32326 19.6962 1.97754 19.6962H3.72294C3.91321 20.7051 4.9497 21.4787 6.19629 21.4787C7.44288 21.4787 8.47937 20.7051 8.66964 19.6962H10.415C11.0688 19.6962 11.6008 20.1454 11.6015 20.6978C11.6015 20.6978 11.6015 20.6985 11.6015 20.6989L11.6014 22.147Z" fill="black"/>
<path d="M14.2383 4.19401C14.5448 4.1331 14.8262 4.0016 15.0546 3.80869C15.3778 3.53553 15.5561 3.17191 15.5566 2.78467C15.5561 2.39783 15.3778 2.03421 15.0546 1.76065C14.7308 1.48749 14.3005 1.33687 13.8428 1.33643C13.3845 1.33687 12.9541 1.48749 12.6309 1.76065C12.3071 2.03426 12.1289 2.39788 12.1289 2.78467C12.1289 2.96915 12.3061 3.11888 12.5244 3.11888C12.7422 3.11888 12.9199 2.96915 12.9199 2.78467V2.78418C12.9204 2.57608 13.0164 2.3809 13.1904 2.23385C13.3645 2.08679 13.5959 2.00525 13.8428 2.0048C14.089 2.00525 14.3205 2.08679 14.4945 2.23385C14.6691 2.3809 14.7651 2.57648 14.7656 2.78463C14.7651 2.99317 14.6691 3.18875 14.4945 3.3358C14.3217 3.48183 14.0922 3.56316 13.8478 3.56467C13.8461 3.56463 13.8444 3.56445 13.8427 3.56445C13.6243 3.56445 13.4472 3.71458 13.4472 3.8991V4.79033C13.4472 4.97437 13.6243 5.12454 13.8427 5.12454C14.0605 5.12454 14.2382 4.97437 14.2382 4.79033V4.19401H14.2383Z" fill="black"/>
<path d="M13.8428 5.34738C13.6244 5.34738 13.4473 5.4971 13.4473 5.68168V6.12697C13.4473 6.31151 13.6244 6.46127 13.8428 6.46127C14.0606 6.46127 14.2383 6.31151 14.2383 6.12697V5.68168C14.2383 5.4971 14.0605 5.34738 13.8428 5.34738Z" fill="black"/>
</svg>
