<svg width="38" height="31" viewBox="0 0 38 31" fill="none" xmlns="http://www.w3.org/2000/svg">
<path d="M25.2427 28.4008H2.36156C1.22984 28.4008 0.3125 27.6256 0.3125 26.6693V1.99542C0.3125 1.03909 1.22984 0.263916 2.36156 0.263916H25.2427C26.3744 0.263916 27.2917 1.03909 27.2917 1.99542V26.6693C27.2917 27.6254 26.3744 28.4008 25.2427 28.4008Z" fill="#A4C9FF"/>
<path d="M25.2427 28.6648H2.36157C1.05938 28.6648 0 27.7696 0 26.6692V1.99556C0 0.895189 1.05938 0 2.36157 0H25.2427C26.5449 0 27.6042 0.895189 27.6042 1.99556V26.6692C27.6042 27.7695 26.5449 28.6648 25.2427 28.6648ZM2.36157 0.528135C1.40391 0.528135 0.625001 1.18646 0.625001 1.99556V26.6692C0.625001 27.4783 1.40391 28.1367 2.36157 28.1367H25.2427C26.2003 28.1367 26.9792 27.4783 26.9792 26.6692V1.99556C26.9792 1.18646 26.2003 0.528135 25.2427 0.528135H2.36157Z" fill="#3762CC"/>
<path d="M27.7905 30.3357H4.90923C3.77751 30.3357 2.86017 29.5605 2.86017 28.6042V3.93047C2.86017 2.97415 3.77751 2.19897 4.90923 2.19897H27.7903C28.922 2.19897 29.8394 2.97415 29.8394 3.93047V28.6042C29.8395 29.5605 28.922 30.3357 27.7905 30.3357Z" fill="#E0EBFC"/>
<path d="M27.7905 30.5997H4.90923C3.60704 30.5997 2.54767 29.7045 2.54767 28.6042V3.93073C2.54767 2.83037 3.60704 1.93518 4.90923 1.93518H27.7903C29.0924 1.93518 30.1517 2.83037 30.1517 3.93073V28.6043C30.1519 29.7045 29.0925 30.5997 27.7905 30.5997ZM4.90923 2.46318C3.95158 2.46318 3.17267 3.1215 3.17267 3.9306V28.6042C3.17267 29.4133 3.95158 30.0716 4.90923 30.0716H27.7903C28.7478 30.0716 29.5267 29.4133 29.5267 28.6042V3.93073C29.5267 3.12163 28.7478 2.46331 27.7903 2.46331H4.90923V2.46318Z" fill="#3762CC"/>
<path d="M25.5706 5.9198H7.12909C6.78393 5.9198 6.50409 5.68335 6.50409 5.39172C6.50409 5.10009 6.78393 4.86365 7.12909 4.86365H25.5706C25.9158 4.86365 26.1956 5.10009 26.1956 5.39172C26.1956 5.68335 25.9158 5.9198 25.5706 5.9198Z" fill="#B9BEFC"/>
<path d="M25.5706 8.55493H7.12909C6.78393 8.55493 6.50409 8.31843 6.50409 8.02673C6.50409 7.73504 6.78393 7.49854 7.12909 7.49854H25.5706C25.9158 7.49854 26.1956 7.73504 26.1956 8.02673C26.1956 8.31843 25.9158 8.55493 25.5706 8.55493Z" fill="#B9BEFC"/>
<path d="M15.509 11.1899H7.12909C6.78393 11.1899 6.50409 10.9535 6.50409 10.6619C6.50409 10.3702 6.78393 10.1338 7.12909 10.1338H15.509C15.8542 10.1338 16.134 10.3702 16.134 10.6619C16.134 10.9535 15.8542 11.1899 15.509 11.1899Z" fill="#B9BEFC"/>
<path d="M23.6426 13.8238L19.2448 19.2843C19.1586 19.3912 19.0161 19.4559 18.8631 19.4575C18.8611 19.4575 18.8594 19.4575 18.8573 19.4575C18.7064 19.4575 18.5645 19.3961 18.4764 19.2923L15.5956 15.8989L11.6913 18.0156C11.498 18.1204 11.2433 18.0915 11.0897 17.9472L6.14799 13.3079C5.97487 13.1453 5.99049 12.8949 6.18284 12.7484C6.37518 12.6023 6.67143 12.6152 6.84487 12.7779L11.5202 17.1671L15.4641 15.0291C15.6742 14.9151 15.9527 14.9603 16.0981 15.1315L18.8473 18.3699L23.317 12.8199C23.4109 12.7037 23.5725 12.6386 23.7361 12.6475C23.902 12.6569 24.0495 12.74 24.1239 12.8655L27.099 18.7309C27.1884 18.9362 27.0639 19.1639 26.8211 19.2395C26.5787 19.3152 26.3087 19.2101 26.2192 19.0046L23.6426 13.8238Z" fill="#FFEA92"/>
<path d="M15.7173 16.0828C16.2282 16.0828 16.6423 15.7327 16.6423 15.3009C16.6423 14.8691 16.2282 14.519 15.7173 14.519C15.2065 14.519 14.7924 14.8691 14.7924 15.3009C14.7924 15.7327 15.2065 16.0828 15.7173 16.0828Z" fill="#F9A7A7"/>
<path d="M18.9817 19.8436C19.4926 19.8436 19.9067 19.4936 19.9067 19.0618C19.9067 18.63 19.4926 18.2799 18.9817 18.2799C18.4708 18.2799 18.0567 18.63 18.0567 19.0618C18.0567 19.4936 18.4708 19.8436 18.9817 19.8436Z" fill="#F9A7A7"/>
<path d="M23.7046 13.8251C24.2154 13.8251 24.6295 13.475 24.6295 13.0432C24.6295 12.6113 24.2154 12.2612 23.7046 12.2612C23.1937 12.2612 22.7796 12.6113 22.7796 13.0432C22.7796 13.475 23.1937 13.8251 23.7046 13.8251Z" fill="#F9A7A7"/>
<path d="M11.4614 18.4227C11.9723 18.4227 12.3864 18.0726 12.3864 17.6407C12.3864 17.2089 11.9723 16.8588 11.4614 16.8588C10.9505 16.8588 10.5364 17.2089 10.5364 17.6407C10.5364 18.0726 10.9505 18.4227 11.4614 18.4227Z" fill="#F9A7A7"/>
<path d="M6.49658 13.8251C7.00744 13.8251 7.42157 13.475 7.42157 13.0432C7.42157 12.6113 7.00744 12.2612 6.49658 12.2612C5.98573 12.2612 5.57159 12.6113 5.57159 13.0432C5.57159 13.475 5.98573 13.8251 6.49658 13.8251Z" fill="#F9A7A7"/>
<path d="M25.5706 22.5981H7.12909C6.78393 22.5981 6.50409 22.3617 6.50409 22.0701C6.50409 21.7784 6.78393 21.542 7.12909 21.542H25.5706C25.9158 21.542 26.1956 21.7784 26.1956 22.0701C26.1956 22.3617 25.9158 22.5981 25.5706 22.5981Z" fill="#B9BEFC"/>
<path d="M25.5706 25.106H7.12909C6.78393 25.106 6.50409 24.8695 6.50409 24.5779C6.50409 24.2863 6.78393 24.0498 7.12909 24.0498H25.5706C25.9158 24.0498 26.1956 24.2863 26.1956 24.5779C26.1956 24.8695 25.9158 25.106 25.5706 25.106Z" fill="#B9BEFC"/>
<path d="M25.5706 27.6138H7.12909C6.78393 27.6138 6.50409 27.3773 6.50409 27.0856C6.50409 26.7939 6.78393 26.5574 7.12909 26.5574H25.5706C25.9158 26.5574 26.1956 26.7939 26.1956 27.0856C26.1956 27.3773 25.9158 27.6138 25.5706 27.6138Z" fill="#B9BEFC"/>
<path d="M36.483 28.8505C35.7942 29.4325 34.6778 29.4325 33.989 28.8505L28.1203 23.8914C27.9 23.7052 27.9 23.4033 28.1203 23.217L29.8161 21.784C30.0364 21.5979 30.3937 21.5979 30.6142 21.784L36.483 26.7431C37.1717 27.325 37.1717 28.2685 36.483 28.8505Z" fill="#4671C6"/>
<path d="M29.7972 21.8005L27.912 20.207C27.6749 20.466 27.4185 20.7163 27.1375 20.9538C26.8566 21.1913 26.5605 21.408 26.2541 21.6085L28.1392 23.202L29.7972 21.8005Z" fill="#F9CFCF"/>
<path d="M27.1083 9.84809C23.4769 6.77949 17.5812 6.76826 13.9659 9.82327C10.3506 12.8783 10.3639 17.8601 13.9953 20.9288C17.6267 23.9974 23.5223 24.0085 27.1375 20.9536C30.7528 17.8986 30.7396 12.9167 27.1083 9.84809ZM25.3202 19.4177C24.0542 20.4874 22.3653 21.0744 20.5644 21.0707C18.765 21.067 17.0744 20.4738 15.8041 19.4004C13.1748 17.1786 13.1656 13.5712 15.7834 11.3591C17.0492 10.2894 18.7381 9.70233 20.5391 9.70603C22.3386 9.70972 24.0292 10.303 25.2997 11.3764C26.5703 12.4501 27.2724 13.8791 27.2764 15.4001C27.2803 16.9216 26.5856 18.3483 25.3202 19.4177Z" fill="#6BDDDD"/>
<path d="M35.2359 29.5513C34.6816 29.5513 34.1602 29.3688 33.768 29.0374L27.899 24.078C27.5572 23.7891 27.5572 23.3191 27.899 23.0301L29.595 21.597C29.9367 21.3082 30.4928 21.3081 30.8351 21.597L36.7039 26.5564C37.0961 26.8877 37.3122 27.3283 37.3122 27.7969C37.3122 28.2655 37.0961 28.706 36.7039 29.0374C36.3119 29.3688 35.7905 29.5513 35.2359 29.5513ZM30.2151 21.9085C30.1506 21.9085 30.0861 21.9292 30.0369 21.9707L28.3409 23.4036C28.2428 23.4866 28.2428 23.6216 28.3409 23.7046L34.2098 28.664C34.4839 28.8956 34.8484 29.0231 35.2358 29.0231C35.6233 29.0231 35.9878 28.8956 36.2617 28.664C36.5358 28.4325 36.6869 28.1246 36.6869 27.797C36.6869 27.4696 36.5358 27.1617 36.2617 26.9301L30.393 21.9707C30.3442 21.9291 30.2797 21.9085 30.2151 21.9085Z" fill="#3762CC"/>
<path d="M28.1392 23.4661C28.0564 23.4661 27.9769 23.4383 27.9183 23.3887L26.0331 21.7952C25.9697 21.7416 25.9366 21.6675 25.9422 21.5917C25.9478 21.5159 25.9917 21.4459 26.0628 21.3995C26.3724 21.1969 26.6595 20.9842 26.9166 20.7669C27.1738 20.5495 27.4255 20.3068 27.665 20.0453C27.72 19.9852 27.8027 19.9482 27.8922 19.9433C27.9831 19.939 28.0697 19.9666 28.133 20.0202L30.018 21.6136C30.14 21.7168 30.14 21.884 30.018 21.9871L28.3602 23.3885C28.3016 23.4382 28.2222 23.4661 28.1392 23.4661ZM26.7216 21.6301L28.1392 22.8283L29.3552 21.8005L27.9377 20.6022C27.7497 20.7936 27.5556 20.9739 27.3585 21.1405C27.1614 21.3072 26.9481 21.4711 26.7216 21.6301Z" fill="#3762CC"/>
<path d="M20.5935 23.5013C18.1264 23.5013 15.6564 22.7058 13.7742 21.1154C11.9591 19.5815 10.9563 17.5416 10.9506 15.3713C10.9449 13.2007 11.9372 11.1639 13.745 9.63644C15.5474 8.1133 17.9491 7.27515 20.5096 7.27515H20.5317C23.1 7.28003 25.5141 8.12743 27.3293 9.66127C31.0825 12.8329 31.0955 17.9822 27.3586 21.14C25.4953 22.7146 23.0461 23.5013 20.5935 23.5013ZM20.5096 7.80341C18.116 7.80341 15.8713 8.58664 14.1869 10.01C12.4975 11.4375 11.5702 13.3411 11.5755 15.3703C11.581 17.3999 12.5186 19.3075 14.2161 20.7421C17.7257 23.7076 23.4228 23.7188 26.9164 20.7669C30.4097 17.8149 30.3966 13.0005 26.8871 10.0349C25.1896 8.6005 22.9319 7.80804 20.53 7.80355C20.5235 7.80341 20.5164 7.80341 20.5096 7.80341ZM20.5814 21.3348C20.5755 21.3348 20.5696 21.3348 20.5636 21.3348C18.681 21.331 16.9122 20.7103 15.5831 19.5872C14.2525 18.4629 13.5177 16.9676 13.5136 15.3768C13.5096 13.7855 14.2372 12.2923 15.5625 11.1724C16.8832 10.0562 18.6441 9.44196 20.5222 9.44196H20.5397C22.4224 9.44592 24.1911 10.0665 25.5205 11.1897C26.85 12.3132 27.5846 13.8083 27.5886 15.3996C27.5928 16.9917 26.8657 18.485 25.541 19.6044C24.22 20.7206 22.4594 21.3348 20.5814 21.3348ZM20.5222 9.97009C18.8108 9.97009 17.2071 10.5293 16.0044 11.5458C14.7974 12.5658 14.1349 13.9257 14.1386 15.3756C14.1422 16.8258 14.8124 18.1888 16.025 19.2137C17.2366 20.2373 18.8488 20.8031 20.5652 20.8065H20.5814C22.2925 20.8065 23.8963 20.2474 25.0991 19.2308C26.3055 18.2115 26.9677 16.8513 26.9638 15.4007C26.96 13.95 26.2905 12.587 25.0788 11.563C23.8671 10.5393 22.2547 9.9734 20.5383 9.96996C20.5332 9.97009 20.5274 9.97009 20.5222 9.97009Z" fill="#3762CC"/>
</svg>
