<svg width="35" height="35" viewBox="0 0 35 35" fill="none" xmlns="http://www.w3.org/2000/svg">
<path d="M35 17.5C35 27.1651 27.1651 35 17.5 35C7.83489 35 0 27.1651 0 17.5C0 7.83489 7.83489 0 17.5 0C27.1651 0 35 7.83489 35 17.5Z" fill="url(#paint0_linear)"/>
<path d="M24.1926 11.7612C24.1926 8.07083 21.1903 5.06836 17.5 5.06836C13.8097 5.06836 10.8075 8.07083 10.8075 11.7612C10.8075 13.9527 11.8662 15.9015 13.4991 17.1231C9.13907 18.7504 6.02551 22.9569 6.02551 27.8774H8.07629C8.07629 22.6813 12.3039 18.4537 17.5 18.4537C21.1903 18.4537 24.1926 15.4515 24.1926 11.7612ZM17.5 16.4029C14.9405 16.4029 12.8582 14.3206 12.8582 11.7612C12.8582 9.20143 14.9405 7.11914 17.5 7.11914C20.0595 7.11914 22.1418 9.2017 22.1418 11.7612C22.1418 14.3206 20.0595 16.4029 17.5 16.4029Z" fill="white"/>
<path d="M18.1572 19.7681V28.0174H28.9745V19.7681H18.1572ZM25.2123 21.8188L23.588 23.0272L21.9634 21.8188H25.2123ZM20.2079 25.9666V23.0688L23.5877 25.5829L26.9237 23.1017V25.9666H20.2079Z" fill="white"/>
<defs>
<linearGradient id="paint0_linear" x1="0" y1="17.5" x2="35" y2="17.5" gradientUnits="userSpaceOnUse">
<stop stop-color="#00F38D"/>
<stop offset="1" stop-color="#009EFF"/>
</linearGradient>
</defs>
</svg>
