<svg width="35" height="35" viewBox="0 0 35 35" fill="none" xmlns="http://www.w3.org/2000/svg">
<g clip-path="url(#clip0)">
<path d="M19.9138 35.0001H7.84485C6.84502 35.0001 6.03448 34.1895 6.03448 33.1897V9.05182C6.03448 8.05199 6.84502 7.24146 7.84485 7.24146H19.9138C20.9136 7.24146 21.7241 8.05199 21.7241 9.05182V33.1897C21.7241 34.1895 20.9137 35.0001 19.9138 35.0001Z" fill="#EFF2FA"/>
<path d="M19.9137 31.3793H7.84481C7.51156 31.3793 7.24133 31.1091 7.24133 30.7758V11.4655C7.24133 11.1323 7.51156 10.8621 7.84481 10.8621H19.9137C20.247 10.8621 20.5172 11.1323 20.5172 11.4655V30.7759C20.5172 31.1091 20.247 31.3793 19.9137 31.3793Z" fill="#C3E678"/>
<path d="M20.5173 17.1468C19.1637 14.891 16.7015 13.3765 13.8794 13.3765C11.0572 13.3765 8.59497 14.891 7.24146 17.1468V25.0946C8.59497 27.3504 11.0572 28.865 13.8794 28.865C16.7015 28.865 19.1637 27.3504 20.5173 25.0946V17.1468Z" fill="#A5D76E"/>
<path d="M15.0862 9.65519H12.6724C12.3392 9.65519 12.069 9.38496 12.069 9.05171C12.069 8.71846 12.3392 8.44824 12.6724 8.44824H15.0862C15.4195 8.44824 15.6897 8.71846 15.6897 9.05171C15.6896 9.38503 15.4195 9.65519 15.0862 9.65519Z" fill="#C7CFE2"/>
<path d="M14.4827 34.3964H13.2759C12.6093 34.3964 12.069 33.8561 12.069 33.1896C12.069 32.523 12.6093 31.9827 13.2759 31.9827H14.4827C15.1493 31.9827 15.6896 32.523 15.6896 33.1896C15.6896 33.8561 15.1493 34.3964 14.4827 34.3964Z" fill="#E4EAF6"/>
<path d="M10.2586 9.65519C9.92538 9.65519 9.65515 9.38496 9.65515 9.05171C9.65515 8.71846 9.92538 8.44824 10.2586 8.44824C10.5919 8.44824 10.8621 8.71846 10.8621 9.05171C10.8621 9.38503 10.5919 9.65519 10.2586 9.65519Z" fill="#959CB3"/>
<path d="M15.356 22.9849V21.6838H12.4026V22.9849L13.8793 24.4718L15.356 22.9849Z" fill="#D29B6E"/>
<path d="M17.6024 23.2191L15.592 22.7682C15.5617 22.7615 15.5337 22.7499 15.5076 22.7359L13.8793 23.6413L12.3145 22.6921C12.2739 22.7285 12.2236 22.7555 12.1665 22.7683L10.1562 23.2192C9.86255 23.285 9.65515 23.5347 9.65515 23.8222V25.035C9.65515 25.2061 9.80069 25.3448 9.98013 25.3448H17.7786C17.958 25.3448 18.1036 25.2061 18.1036 25.035V23.8222C18.1035 23.5347 17.896 23.285 17.6024 23.2191Z" fill="#EFF2FA"/>
<path d="M16.9108 24.3399L17.9636 23.4385C18.0518 23.545 18.1035 23.679 18.1035 23.8223V25.0351C18.1035 25.2063 17.958 25.3449 17.7785 25.3449H16.6412V24.9159C16.6412 24.6962 16.7393 24.4868 16.9108 24.3399Z" fill="#E4EAF6"/>
<path d="M10.8479 24.3399L9.79508 23.4385C9.70683 23.545 9.65515 23.679 9.65515 23.8223V25.0351C9.65515 25.2063 9.80069 25.3449 9.98013 25.3449H11.1174V24.9159C11.1174 24.6962 11.0194 24.4868 10.8479 24.3399Z" fill="#E4EAF6"/>
<path d="M14.2855 25.3448H13.4731L13.5747 23.636H14.1839L14.2855 25.3448Z" fill="#5B5D6E"/>
<path d="M12.3943 22.3673L13.8794 23.6413C13.8794 23.6413 13.4635 23.8414 12.9503 24.2448C12.8444 24.328 12.6842 24.2943 12.6275 24.1752L11.9298 22.7122L12.1505 22.3966C12.2054 22.3181 12.3207 22.3042 12.3943 22.3673Z" fill="#E4EAF6"/>
<path d="M15.3643 22.3673L13.8793 23.6413C13.8793 23.6413 14.2951 23.8414 14.8083 24.2448C14.9142 24.328 15.0744 24.2943 15.1311 24.1752L15.8288 22.7122L15.6081 22.3966C15.5533 22.3181 15.4379 22.3042 15.3643 22.3673Z" fill="#E4EAF6"/>
<path d="M14.4828 16.2932H13.2759C12.2761 16.2932 11.4655 17.1038 11.4655 18.1036V19.414C11.4655 19.7341 11.5927 20.0411 11.819 20.2674L12.069 20.5173H15.6897L15.9397 20.2674C16.166 20.041 16.2932 19.7341 16.2932 19.414V18.1036C16.2931 17.1037 15.4826 16.2932 14.4828 16.2932Z" fill="#694B4B"/>
<path d="M12.0047 19.4019L12.082 21.1413C12.0941 21.4126 12.2242 21.6642 12.4368 21.8273L13.0495 22.297C13.2034 22.415 13.3906 22.4788 13.583 22.4788H14.1757C14.3681 22.4788 14.5553 22.4149 14.7092 22.297L15.3219 21.8273C15.5344 21.6642 15.6646 21.4127 15.6767 21.1413L15.754 19.4019C15.7822 18.7672 15.2866 18.2368 14.6652 18.2368H13.0938C12.4722 18.2368 11.9765 18.7672 12.0047 19.4019Z" fill="#F0C087"/>
<path d="M23.5345 9.65531C23.2012 9.65531 22.931 9.38509 22.931 9.05183C22.931 7.38804 21.5774 6.03459 19.9138 6.03459C19.5805 6.03459 19.3103 5.76436 19.3103 5.43111C19.3103 5.09786 19.5805 4.82764 19.9138 4.82764C22.243 4.82764 24.1379 6.72256 24.1379 9.05177C24.1379 9.38516 23.8678 9.65531 23.5345 9.65531Z" fill="#E4EAF6"/>
<path d="M25.9483 9.65525C25.615 9.65525 25.3448 9.38503 25.3448 9.05178C25.3448 6.0571 22.9083 3.62077 19.9138 3.62077C19.5805 3.62077 19.3103 3.35055 19.3103 3.01729C19.3103 2.68404 19.5805 2.41382 19.9138 2.41382C23.5739 2.41382 26.5517 5.39162 26.5517 9.05171C26.5517 9.3851 26.2815 9.65525 25.9483 9.65525Z" fill="#E4EAF6"/>
<path d="M28.3621 9.65515C28.0289 9.65515 27.7586 9.38492 27.7586 9.05167C27.7586 4.72603 24.2396 1.20682 19.9138 1.20682C19.5805 1.20682 19.3103 0.936592 19.3103 0.60334C19.3103 0.270088 19.5805 0 19.9138 0C24.9049 0 28.9655 4.06062 28.9655 9.05174C28.9655 9.38499 28.6954 9.65515 28.3621 9.65515Z" fill="#E4EAF6"/>
</g>
<defs>
<clipPath id="clip0">
<rect width="35" height="35" fill="white"/>
</clipPath>
</defs>
</svg>
