<svg width="35" height="35" viewBox="0 0 35 35" fill="none" xmlns="http://www.w3.org/2000/svg">
<path d="M19.151 18.4905H17.8302V30.3773H19.151V18.4905Z" fill="#424A60"/>
<path d="M30.8443 4.42878L29.9104 3.49487L20.0049 13.4003L20.9388 14.3342L30.8443 4.42878Z" fill="#424A60"/>
<path d="M17.6367 17.6365L16.7028 16.7026L3.49553 29.9099L4.42943 30.8438L17.6367 17.6365Z" fill="#424A60"/>
<path d="M16.3159 12.7402L9.052 5.47632L8.1181 6.41022L15.382 13.6741L16.3159 12.7402Z" fill="#424A60"/>
<path d="M30.1836 26.6079L20.2781 16.7024L19.3442 17.6363L29.2497 27.5418L30.1836 26.6079Z" fill="#424A60"/>
<path d="M31.6981 6.60377C33.5217 6.60377 35 5.12547 35 3.30189C35 1.47831 33.5217 0 31.6981 0C29.8745 0 28.3962 1.47831 28.3962 3.30189C28.3962 5.12547 29.8745 6.60377 31.6981 6.60377Z" fill="#43B05C"/>
<path d="M18.4905 35C20.3141 35 21.7924 33.5217 21.7924 31.6981C21.7924 29.8745 20.3141 28.3962 18.4905 28.3962C16.667 28.3962 15.1887 29.8745 15.1887 31.6981C15.1887 33.5217 16.667 35 18.4905 35Z" fill="#7383BF"/>
<path d="M3.30189 33.6792C5.12547 33.6792 6.60377 32.2009 6.60377 30.3773C6.60377 28.5537 5.12547 27.0754 3.30189 27.0754C1.47831 27.0754 0 28.5537 0 30.3773C0 32.2009 1.47831 33.6792 3.30189 33.6792Z" fill="#57D8AB"/>
<path d="M7.92455 7.26427C9.0187 7.26427 9.90568 6.37728 9.90568 5.28313C9.90568 4.18898 9.0187 3.302 7.92455 3.302C6.8304 3.302 5.94342 4.18898 5.94342 5.28313C5.94342 6.37728 6.8304 7.26427 7.92455 7.26427Z" fill="#D75A4A"/>
<path d="M29.0566 28.3963C30.1508 28.3963 31.0378 27.5094 31.0378 26.4152C31.0378 25.3211 30.1508 24.4341 29.0566 24.4341C27.9625 24.4341 27.0755 25.3211 27.0755 26.4152C27.0755 27.5094 27.9625 28.3963 29.0566 28.3963Z" fill="#EBBA16"/>
<path d="M18.4906 20.4716C21.0436 20.4716 23.1132 18.402 23.1132 15.849C23.1132 13.2959 21.0436 11.2263 18.4906 11.2263C15.9375 11.2263 13.8679 13.2959 13.8679 15.849C13.8679 18.402 15.9375 20.4716 18.4906 20.4716Z" fill="#4B6DAA"/>
</svg>
