<svg width="40" height="34" viewBox="0 0 40 34" fill="none" xmlns="http://www.w3.org/2000/svg">
<path d="M15.3724 26.8075L5.25518 33.6724C5.04821 33.8106 4.76608 33.837 4.5284 33.7403C4.29073 33.6436 4.13915 33.4408 4.13794 33.2179V26.8075L8.96553 25.642L15.3724 26.8075Z" fill="#33907C"/>
<path d="M37.2414 0H2.75862C1.23508 0 0 1.04366 0 2.33109V24.4764C0 25.7638 1.23508 26.8075 2.75862 26.8075H37.2414C38.7649 26.8075 40 25.7638 40 24.4764V2.33109C40 1.04366 38.7649 0 37.2414 0Z" fill="#14A085"/>
<path d="M17.2345 14.441L15.2069 16.1485C14.9359 16.3758 14.4986 16.3758 14.2276 16.1485L12.5931 14.7674C12.3242 14.5383 12.3242 14.1689 12.5931 13.9398L14.6207 12.2323L17.2345 14.441Z" fill="#285680"/>
<path d="M19.5931 14.7907C19.3365 15.0107 18.9862 15.1345 18.6207 15.1345C18.2552 15.1345 17.9049 15.0107 17.6483 14.7907L14.2 11.8769C13.8222 11.5886 13.663 11.148 13.7858 10.7306C13.9085 10.3132 14.2934 9.98687 14.7869 9.88165C15.2804 9.77642 15.8024 9.9094 16.1448 10.2276L16.8966 10.8687H16.9034L18.8414 12.5121H18.8483L19.5931 13.1415C19.8545 13.359 20.0017 13.6561 20.0017 13.9661C20.0017 14.2761 19.8545 14.5732 19.5931 14.7907Z" fill="#2980BA"/>
<path d="M20.7034 10.939L18.8483 12.5129H18.8414L16.9034 10.8691L18.7586 9.29517L20.7034 10.939Z" fill="#BDC3C7"/>
<path d="M25.3104 7.04574L22.6207 9.31848L20.6758 7.67512L23.3586 5.4082C23.3808 5.68954 23.5229 5.95456 23.7586 6.15413C24.4524 6.74854 24.6897 7.0236 25.3104 7.04574Z" fill="#BDC3C7"/>
<path d="M28.1724 5.18748L26.3724 6.71441C25.8304 7.16356 24.9627 7.16356 24.4207 6.71441L23.7586 6.15492C23.4996 5.93629 23.3541 5.63963 23.3541 5.33027C23.3541 5.02091 23.4996 4.72424 23.7586 4.50561L25.5655 2.97868C25.6996 2.86762 25.9142 2.86762 26.0483 2.97868L28.1724 4.7737C28.2377 4.82841 28.2744 4.90289 28.2744 4.98059C28.2744 5.05829 28.2377 5.13277 28.1724 5.18748Z" fill="#ECF0F1"/>
<path d="M25.0276 12.9733C24.7602 13.2006 24.7602 13.5677 25.0276 13.795L26.9172 15.3918C25.9491 15.8713 24.7337 15.8075 23.8433 15.2304C22.9529 14.6533 22.5649 13.6779 22.8621 12.7635L16.6 7.47194C15.5179 7.72302 14.3636 7.39518 13.6806 6.64276C12.9977 5.89035 12.9222 4.86333 13.4896 4.04526L15.3724 5.63622C15.5461 5.78404 15.7999 5.84233 16.0383 5.78912C16.2766 5.73592 16.4633 5.5793 16.5279 5.37827C16.5926 5.17724 16.5254 4.96234 16.3517 4.81451L14.4689 3.22356C15.4363 2.74345 16.6517 2.80725 17.5413 3.38483C18.4309 3.96241 18.817 4.93829 18.5172 5.85184L24.7793 11.1434C25.8625 10.889 27.0199 11.2155 27.7051 11.9687C28.3902 12.7218 28.466 13.751 27.8965 14.5701L26.0069 12.9733C25.7358 12.746 25.2986 12.746 25.0276 12.9733Z" fill="#ECF0F1"/>
<path d="M6.20689 19.8142H4.82759C4.44671 19.8142 4.13794 19.5533 4.13794 19.2314C4.13794 18.9096 4.44671 18.6487 4.82759 18.6487H6.20689C6.58778 18.6487 6.89655 18.9096 6.89655 19.2314C6.89655 19.5533 6.58778 19.8142 6.20689 19.8142Z" fill="#81CCB8"/>
<path d="M35.1724 19.8142H26.2069C25.826 19.8142 25.5173 19.5533 25.5173 19.2314C25.5173 18.9096 25.826 18.6487 26.2069 18.6487H35.1724C35.5533 18.6487 35.862 18.9096 35.862 19.2314C35.862 19.5533 35.5533 19.8142 35.1724 19.8142Z" fill="#81CCB8"/>
<path d="M23.4483 19.8142H8.96553C8.58464 19.8142 8.27588 19.5533 8.27588 19.2314C8.27588 18.9096 8.58464 18.6487 8.96553 18.6487H23.4483C23.8292 18.6487 24.1379 18.9096 24.1379 19.2314C24.1379 19.5533 23.8292 19.8142 23.4483 19.8142Z" fill="#81CCB8"/>
<path d="M35.1724 22.1462H33.7931C33.4122 22.1462 33.1035 21.8853 33.1035 21.5634C33.1035 21.2414 33.4122 20.9805 33.7931 20.9805H35.1724C35.5533 20.9805 35.8621 21.2414 35.8621 21.5634C35.8621 21.8853 35.5533 22.1462 35.1724 22.1462Z" fill="#81CCB8"/>
<path d="M13.7931 22.1462H4.8276C4.44671 22.1462 4.13794 21.8853 4.13794 21.5634C4.13794 21.2414 4.44671 20.9805 4.8276 20.9805H13.7931C14.174 20.9805 14.4828 21.2414 14.4828 21.5634C14.4828 21.8853 14.174 22.1462 13.7931 22.1462Z" fill="#81CCB8"/>
<path d="M31.0345 22.1462H16.5517C16.1708 22.1462 15.8621 21.8853 15.8621 21.5634C15.8621 21.2414 16.1708 20.9805 16.5517 20.9805H31.0345C31.4154 20.9805 31.7241 21.2414 31.7241 21.5634C31.7241 21.8853 31.4154 22.1462 31.0345 22.1462Z" fill="#81CCB8"/>
<path d="M6.20689 24.4764H4.82759C4.44671 24.4764 4.13794 24.2155 4.13794 23.8936C4.13794 23.5717 4.44671 23.3108 4.82759 23.3108H6.20689C6.58778 23.3108 6.89655 23.5717 6.89655 23.8936C6.89655 24.2155 6.58778 24.4764 6.20689 24.4764Z" fill="#81CCB8"/>
<path d="M23.4483 24.4764H8.96553C8.58465 24.4764 8.27588 24.2155 8.27588 23.8936C8.27588 23.5717 8.58465 23.3108 8.96553 23.3108H23.4483C23.8292 23.3108 24.1379 23.5717 24.1379 23.8936C24.1379 24.2155 23.8292 24.4764 23.4483 24.4764Z" fill="#81CCB8"/>
</svg>
