<svg width="35" height="35" viewBox="0 0 35 35" fill="none" xmlns="http://www.w3.org/2000/svg">
<path d="M17.4998 35C27.1647 35 34.9996 27.165 34.9996 17.5C34.9996 7.83502 27.1647 0 17.4998 0C7.83492 0 0 7.83502 0 17.5C0 27.165 7.83492 35 17.4998 35Z" fill="#41B4E6"/>
<path d="M35 17.4994C35 17.073 34.9839 16.6505 34.954 16.2316L27.7011 8.97876L7.29889 17.0042L15.1049 24.8105L15.2073 25.1791L15.3399 25.0454L15.3404 25.046L15.2073 25.1791L23.8423 33.8142C30.3719 31.2739 35 24.9275 35 17.4994Z" fill="#0091C8"/>
<path d="M15.8005 20.0487L23.7091 26.0197L27.7012 8.97876L7.29883 17.004L13.507 19.0603L24.8371 11.4604L15.8005 20.0487Z" fill="white"/>
<path d="M13.507 19.0603L15.2073 25.1788L15.8004 20.0488L24.837 11.4604L13.507 19.0603Z" fill="#D2D2D7"/>
<path d="M18.3707 21.9895L15.2073 25.1786L15.8004 20.0491L18.3707 21.9895Z" fill="#B9B9BE"/>
</svg>
