<svg width="40" height="40" viewBox="0 0 40 40" fill="none" xmlns="http://www.w3.org/2000/svg">
<path d="M20 38.125C30.0102 38.125 38.125 30.0102 38.125 20C38.125 9.98984 30.0102 1.875 20 1.875C9.98984 1.875 1.875 9.98984 1.875 20C1.875 30.0102 9.98984 38.125 20 38.125Z" fill="#FF421D"/>
<path d="M34.4335 9.04016C31.9615 21.9376 21.5682 32.0202 8.50781 34.0152C11.7451 36.6781 15.8083 38.1311 20 38.1251C30.0102 38.1251 38.125 30.0102 38.125 20.0001C38.1305 16.0407 36.8333 12.1894 34.4335 9.04016Z" fill="#BF3216"/>
<path d="M20 35.625C28.6294 35.625 35.625 28.6294 35.625 20C35.625 11.3706 28.6294 4.375 20 4.375C11.3706 4.375 4.375 11.3706 4.375 20C4.375 28.6294 11.3706 35.625 20 35.625Z" fill="#FADBB7"/>
<path d="M33.6172 12.34C32.0523 17.3925 29.2329 21.9662 25.4221 25.6342C21.6112 29.3023 16.9332 31.945 11.8246 33.3159C14.2826 34.8295 17.1134 35.629 20 35.625C28.6295 35.625 35.625 28.6294 35.625 20C35.6281 17.3161 34.9364 14.6772 33.6172 12.34Z" fill="#FBBD75"/>
<path d="M22.3169 11.4331L20.4419 9.55811C20.3247 9.44094 20.1657 9.37512 20 9.37512C19.8343 9.37512 19.6753 9.44094 19.5581 9.55811L17.6831 11.4331L18.5669 12.3169L19.375 11.5087V20H20.625V11.5087L21.4331 12.3169L22.3169 11.4331Z" fill="#FDB62F"/>
<path d="M19.375 6.25H20.625V8.75H19.375V6.25Z" fill="#FF5086"/>
<path d="M31.25 19.375H33.75V20.625H31.25V19.375Z" fill="#BF3C65"/>
<path d="M19.375 31.25H20.625V33.75H19.375V31.25Z" fill="#BF3C65"/>
<path d="M3.125 15.625H13.125C13.125 18.8265 11.8532 21.8968 9.58945 24.1605C9.39713 24.3529 9.24458 24.5812 9.1405 24.8324C9.03641 25.0837 8.98284 25.353 8.98284 25.625C8.98284 25.897 9.03641 26.1663 9.1405 26.4176C9.24458 26.6688 9.39713 26.8971 9.58945 27.0895C11.8532 29.3532 13.125 32.4235 13.125 35.625H3.125C3.125 32.4235 4.39678 29.3532 6.66055 27.0895C6.85287 26.8971 7.00542 26.6688 7.1095 26.4176C7.21359 26.1663 7.26716 25.897 7.26716 25.625C7.26716 25.353 7.21359 25.0837 7.1095 24.8324C7.00542 24.5812 6.85287 24.3529 6.66055 24.1605C4.39678 21.8968 3.125 18.8265 3.125 15.625Z" fill="#CCCCCC"/>
<path d="M13.125 13.125H3.125C2.43464 13.125 1.875 13.6846 1.875 14.375C1.875 15.0654 2.43464 15.625 3.125 15.625H13.125C13.8154 15.625 14.375 15.0654 14.375 14.375C14.375 13.6846 13.8154 13.125 13.125 13.125Z" fill="#0071BC"/>
<path d="M13.125 35.625H3.125C2.43464 35.625 1.875 36.1846 1.875 36.875C1.875 37.5654 2.43464 38.125 3.125 38.125H13.125C13.8154 38.125 14.375 37.5654 14.375 36.875C14.375 36.1846 13.8154 35.625 13.125 35.625Z" fill="#0071BC"/>
<path d="M9.25305 24.6016C9.34494 24.4403 9.45809 24.2921 9.58945 24.1609C10.1004 23.6499 10.5644 23.094 10.9759 22.5H5.27406C5.68558 23.0939 6.14961 23.6497 6.66055 24.1605C6.79171 24.2915 6.9047 24.4396 6.99648 24.6006C7.12194 24.7841 7.29023 24.9342 7.48679 25.038C7.68335 25.1418 7.90225 25.1961 8.12452 25.1962C8.34679 25.1962 8.56573 25.1421 8.76238 25.0385C8.95902 24.9349 9.12744 24.7849 9.25305 24.6016Z" fill="#6CBBC7"/>
<path d="M12.5834 8.40295L13.6661 7.77784L14.2912 8.86054L13.2085 9.48565L12.5834 8.40295Z" fill="#FF5086"/>
<path d="M12.5825 31.5989L13.2076 30.5162L14.2903 31.1413L13.6652 32.224L12.5825 31.5989Z" fill="#FF5086"/>
<path d="M25.7093 31.1334L26.792 30.5083L27.4171 31.591L26.3344 32.2161L25.7093 31.1334Z" fill="#BF3C65"/>
<path d="M30.5133 26.7957L31.1384 25.713L32.2211 26.3381L31.596 27.4208L30.5133 26.7957Z" fill="#BF3C65"/>
<path d="M30.5115 13.2052L31.5942 12.5801L32.2194 13.6628L31.1367 14.2879L30.5115 13.2052Z" fill="#FF5086"/>
<path d="M25.7102 8.86475L26.3353 7.78204L27.418 8.40716L26.7929 9.48986L25.7102 8.86475Z" fill="#FF5086"/>
<path d="M27.099 23.5883L26.4123 21.027L25.2051 21.3504L25.501 22.4542L20.3125 19.4586L19.6875 20.5414L24.876 23.5369L23.7719 23.8328L24.0955 25.04L26.6571 24.3537C26.7364 24.3325 26.8108 24.2959 26.8759 24.2459C26.9411 24.1959 26.9957 24.1336 27.0368 24.0625C27.0778 23.9914 27.1044 23.9129 27.1151 23.8315C27.1258 23.7501 27.1203 23.6674 27.099 23.5881V23.5883Z" fill="#FDB62F"/>
<path d="M20 21.25C20.6904 21.25 21.25 20.6904 21.25 20C21.25 19.3096 20.6904 18.75 20 18.75C19.3096 18.75 18.75 19.3096 18.75 20C18.75 20.6904 19.3096 21.25 20 21.25Z" fill="#FF421D"/>
<path d="M7.48289 35.625H13.125C13.1225 33.31 12.454 31.0445 11.1992 29.099C11.0642 30.3845 10.6643 31.6281 10.0247 32.7513C9.38503 33.8745 8.51958 34.853 7.48289 35.625Z" fill="#B3B3B3"/>
<path d="M3.125 35.625L8.125 30.625L13.125 35.625H3.125Z" fill="#6CBBC7"/>
<path d="M10.1094 32.6094C9.46011 33.7912 8.56438 34.8196 7.48289 35.625H13.125L10.1094 32.6094Z" fill="#56959F"/>
<path d="M13.125 35.625H7.4829C5.91201 36.8051 4.00826 37.4584 2.04376 37.4915C2.15184 37.6833 2.30887 37.843 2.49882 37.9543C2.68878 38.0656 2.90486 38.1245 3.12501 38.125H13.125C13.4565 38.125 13.7745 37.9933 14.0089 37.7589C14.2433 37.5245 14.375 37.2065 14.375 36.875C14.375 36.5435 14.2433 36.2255 14.0089 35.9911C13.7745 35.7567 13.4565 35.625 13.125 35.625Z" fill="#005A97"/>
</svg>
